<?xml version="1.0" encoding="UTF-8" standalone="no"?>
<!-- Created with Inkscape (http://www.inkscape.org/) -->

<svg
   version="1.1"
   id="svg1"
   width="1152"
   height="768"
   viewBox="0 0 1152 768"
   xmlns="http://www.w3.org/2000/svg"
   xmlns:svg="http://www.w3.org/2000/svg">
  <defs
     id="defs1">
    <clipPath
       clipPathUnits="userSpaceOnUse"
       id="clipPath4">
      <path
         d="M 68.69,298.49 H 853.2 V 540.72 H 68.69 Z"
         id="path4" />
    </clipPath>
    <clipPath
       clipPathUnits="userSpaceOnUse"
       id="clipPath7">
      <path
         d="M 68.69,298.49 H 853.2 V 540.72 H 68.69 Z"
         id="path7" />
    </clipPath>
    <clipPath
       clipPathUnits="userSpaceOnUse"
       id="clipPath10">
      <path
         d="M 68.69,298.49 H 853.2 V 540.72 H 68.69 Z"
         id="path10" />
    </clipPath>
    <clipPath
       clipPathUnits="userSpaceOnUse"
       id="clipPath13">
      <path
         d="M 68.69,298.49 H 853.2 V 540.72 H 68.69 Z"
         id="path13" />
    </clipPath>
    <clipPath
       clipPathUnits="userSpaceOnUse"
       id="clipPath16">
      <path
         d="M 68.69,298.49 H 853.2 V 540.72 H 68.69 Z"
         id="path16" />
    </clipPath>
    <clipPath
       clipPathUnits="userSpaceOnUse"
       id="clipPath19">
      <path
         d="M 68.69,298.49 H 853.2 V 540.72 H 68.69 Z"
         id="path19" />
    </clipPath>
    <clipPath
       clipPathUnits="userSpaceOnUse"
       id="clipPath22">
      <path
         d="M 68.69,298.49 H 853.2 V 540.72 H 68.69 Z"
         id="path22" />
    </clipPath>
    <clipPath
       clipPathUnits="userSpaceOnUse"
       id="clipPath25">
      <path
         d="M 68.69,298.49 H 853.2 V 540.72 H 68.69 Z"
         id="path25" />
    </clipPath>
    <clipPath
       clipPathUnits="userSpaceOnUse"
       id="clipPath28">
      <path
         d="M 68.69,298.49 H 853.2 V 540.72 H 68.69 Z"
         id="path28" />
    </clipPath>
    <clipPath
       clipPathUnits="userSpaceOnUse"
       id="clipPath31">
      <path
         d="M 68.69,298.49 H 853.2 V 540.72 H 68.69 Z"
         id="path31" />
    </clipPath>
    <clipPath
       clipPathUnits="userSpaceOnUse"
       id="clipPath34">
      <path
         d="M 68.69,298.49 H 853.2 V 540.72 H 68.69 Z"
         id="path34" />
    </clipPath>
    <clipPath
       clipPathUnits="userSpaceOnUse"
       id="clipPath37">
      <path
         d="M 68.69,298.49 H 853.2 V 540.72 H 68.69 Z"
         id="path37" />
    </clipPath>
    <clipPath
       clipPathUnits="userSpaceOnUse"
       id="clipPath40">
      <path
         d="M 68.69,298.49 H 853.2 V 540.72 H 68.69 Z"
         id="path40" />
    </clipPath>
    <clipPath
       clipPathUnits="userSpaceOnUse"
       id="clipPath42">
      <path
         d="M 68.69,298.49 H 853.2 V 540.72 H 68.69 Z"
         id="path42" />
    </clipPath>
    <clipPath
       clipPathUnits="userSpaceOnUse"
       id="clipPath52">
      <path
         d="M 68.69,41.96 H 853.2 V 284.19 H 68.69 Z"
         id="path52" />
    </clipPath>
    <clipPath
       clipPathUnits="userSpaceOnUse"
       id="clipPath55">
      <path
         d="M 68.69,41.96 H 853.2 V 284.19 H 68.69 Z"
         id="path55" />
    </clipPath>
    <clipPath
       clipPathUnits="userSpaceOnUse"
       id="clipPath58">
      <path
         d="M 68.69,41.96 H 853.2 V 284.19 H 68.69 Z"
         id="path58" />
    </clipPath>
    <clipPath
       clipPathUnits="userSpaceOnUse"
       id="clipPath61">
      <path
         d="M 68.69,41.96 H 853.2 V 284.19 H 68.69 Z"
         id="path61" />
    </clipPath>
    <clipPath
       clipPathUnits="userSpaceOnUse"
       id="clipPath64">
      <path
         d="M 68.69,41.96 H 853.2 V 284.19 H 68.69 Z"
         id="path64" />
    </clipPath>
    <clipPath
       clipPathUnits="userSpaceOnUse"
       id="clipPath67">
      <path
         d="M 68.69,41.96 H 853.2 V 284.19 H 68.69 Z"
         id="path67" />
    </clipPath>
    <clipPath
       clipPathUnits="userSpaceOnUse"
       id="clipPath70">
      <path
         d="M 68.69,41.96 H 853.2 V 284.19 H 68.69 Z"
         id="path70" />
    </clipPath>
    <clipPath
       clipPathUnits="userSpaceOnUse"
       id="clipPath72">
      <path
         d="M -1021,-463 H 1794 V 1233 H -1021 Z"
         transform="translate(0,-1.1956003e-4)"
         id="path72" />
    </clipPath>
    <clipPath
       clipPathUnits="userSpaceOnUse"
       id="clipPath75">
      <path
         d="M 68.69,41.96 H 853.2 V 284.19 H 68.69 Z"
         id="path75" />
    </clipPath>
    <clipPath
       clipPathUnits="userSpaceOnUse"
       id="clipPath77">
      <path
         d="M -1021,-463 H 1794 V 1233 H -1021 Z"
         transform="translate(0,-1.5810008e-5)"
         id="path77" />
    </clipPath>
    <clipPath
       clipPathUnits="userSpaceOnUse"
       id="clipPath80">
      <path
         d="M 68.69,41.96 H 853.2 V 284.19 H 68.69 Z"
         id="path80" />
    </clipPath>
    <clipPath
       clipPathUnits="userSpaceOnUse"
       id="clipPath82">
      <path
         d="M -1021,-463 H 1794 V 1233 H -1021 Z"
         transform="translate(0,8.7950029e-5)"
         id="path82" />
    </clipPath>
    <clipPath
       clipPathUnits="userSpaceOnUse"
       id="clipPath85">
      <path
         d="M 68.69,41.96 H 853.2 V 284.19 H 68.69 Z"
         id="path85" />
    </clipPath>
    <clipPath
       clipPathUnits="userSpaceOnUse"
       id="clipPath87">
      <path
         d="M -1021,-463 H 1794 V 1233 H -1021 Z"
         transform="translate(0,1.9170005e-4)"
         id="path87" />
    </clipPath>
    <clipPath
       clipPathUnits="userSpaceOnUse"
       id="clipPath90">
      <path
         d="M 68.69,41.96 H 853.2 V 284.19 H 68.69 Z"
         id="path90" />
    </clipPath>
    <clipPath
       clipPathUnits="userSpaceOnUse"
       id="clipPath93">
      <path
         d="M 68.69,41.96 H 853.2 V 284.19 H 68.69 Z"
         id="path93" />
    </clipPath>
  </defs>
  <g
     id="g1">
    <path
       id="path1"
       d="M 0,0 H 864 V 576 H 0 Z"
       style="fill:#ffffff;fill-opacity:1;fill-rule:nonzero;stroke:none"
       transform="matrix(1.3333333,0,0,-1.3333333,0,768)" />
    <path
       id="path2"
       d="M 68.69,298.49 H 853.2 V 540.72 H 68.69 Z"
       style="fill:#ffffff;fill-opacity:1;fill-rule:nonzero;stroke:none"
       transform="matrix(1.3333333,0,0,-1.3333333,0,768)" />
    <path
       id="path3"
       d="M 100.00564,298.49 V 540.72"
       style="fill:none;stroke:#b0b0b0;stroke-width:0.8;stroke-linecap:square;stroke-linejoin:round;stroke-miterlimit:10;stroke-dasharray:none;stroke-opacity:1"
       transform="matrix(1.3333333,0,0,-1.3333333,0,768)"
       clip-path="url(#clipPath4)" />
    <path
       id="path5"
       d="m 100.00564,298.49 v -3.5"
       style="fill:#000000;fill-opacity:1;fill-rule:nonzero;stroke:#000000;stroke-width:0.8;stroke-linecap:butt;stroke-linejoin:round;stroke-miterlimit:10;stroke-dasharray:none;stroke-opacity:1"
       transform="matrix(1.3333333,0,0,-1.3333333,0,768)" />
    <path
       id="path6"
       d="M 244.14444,298.49 V 540.72"
       style="fill:none;stroke:#b0b0b0;stroke-width:0.8;stroke-linecap:square;stroke-linejoin:round;stroke-miterlimit:10;stroke-dasharray:none;stroke-opacity:1"
       transform="matrix(1.3333333,0,0,-1.3333333,0,768)"
       clip-path="url(#clipPath7)" />
    <path
       id="path8"
       d="m 244.14444,298.49 v -3.5"
       style="fill:#000000;fill-opacity:1;fill-rule:nonzero;stroke:#000000;stroke-width:0.8;stroke-linecap:butt;stroke-linejoin:round;stroke-miterlimit:10;stroke-dasharray:none;stroke-opacity:1"
       transform="matrix(1.3333333,0,0,-1.3333333,0,768)" />
    <path
       id="path9"
       d="M 388.67815,298.49 V 540.72"
       style="fill:none;stroke:#b0b0b0;stroke-width:0.8;stroke-linecap:square;stroke-linejoin:round;stroke-miterlimit:10;stroke-dasharray:none;stroke-opacity:1"
       transform="matrix(1.3333333,0,0,-1.3333333,0,768)"
       clip-path="url(#clipPath10)" />
    <path
       id="path11"
       d="m 388.67815,298.49 v -3.5"
       style="fill:#000000;fill-opacity:1;fill-rule:nonzero;stroke:#000000;stroke-width:0.8;stroke-linecap:butt;stroke-linejoin:round;stroke-miterlimit:10;stroke-dasharray:none;stroke-opacity:1"
       transform="matrix(1.3333333,0,0,-1.3333333,0,768)" />
    <path
       id="path12"
       d="M 532.81695,298.49 V 540.72"
       style="fill:none;stroke:#b0b0b0;stroke-width:0.8;stroke-linecap:square;stroke-linejoin:round;stroke-miterlimit:10;stroke-dasharray:none;stroke-opacity:1"
       transform="matrix(1.3333333,0,0,-1.3333333,0,768)"
       clip-path="url(#clipPath13)" />
    <path
       id="path14"
       d="m 532.81695,298.49 v -3.5"
       style="fill:#000000;fill-opacity:1;fill-rule:nonzero;stroke:#000000;stroke-width:0.8;stroke-linecap:butt;stroke-linejoin:round;stroke-miterlimit:10;stroke-dasharray:none;stroke-opacity:1"
       transform="matrix(1.3333333,0,0,-1.3333333,0,768)" />
    <path
       id="path15"
       d="M 676.95576,298.49 V 540.72"
       style="fill:none;stroke:#b0b0b0;stroke-width:0.8;stroke-linecap:square;stroke-linejoin:round;stroke-miterlimit:10;stroke-dasharray:none;stroke-opacity:1"
       transform="matrix(1.3333333,0,0,-1.3333333,0,768)"
       clip-path="url(#clipPath16)" />
    <path
       id="path17"
       d="m 676.95576,298.49 v -3.5"
       style="fill:#000000;fill-opacity:1;fill-rule:nonzero;stroke:#000000;stroke-width:0.8;stroke-linecap:butt;stroke-linejoin:round;stroke-miterlimit:10;stroke-dasharray:none;stroke-opacity:1"
       transform="matrix(1.3333333,0,0,-1.3333333,0,768)" />
    <path
       id="path18"
       d="M 821.09456,298.49 V 540.72"
       style="fill:none;stroke:#b0b0b0;stroke-width:0.8;stroke-linecap:square;stroke-linejoin:round;stroke-miterlimit:10;stroke-dasharray:none;stroke-opacity:1"
       transform="matrix(1.3333333,0,0,-1.3333333,0,768)"
       clip-path="url(#clipPath19)" />
    <path
       id="path20"
       d="m 821.09456,298.49 v -3.5"
       style="fill:#000000;fill-opacity:1;fill-rule:nonzero;stroke:#000000;stroke-width:0.8;stroke-linecap:butt;stroke-linejoin:round;stroke-miterlimit:10;stroke-dasharray:none;stroke-opacity:1"
       transform="matrix(1.3333333,0,0,-1.3333333,0,768)" />
    <path
       id="path21"
       d="M 68.69,314.96685 H 853.2"
       style="fill:none;stroke:#b0b0b0;stroke-width:0.8;stroke-linecap:square;stroke-linejoin:round;stroke-miterlimit:10;stroke-dasharray:none;stroke-opacity:1"
       transform="matrix(1.3333333,0,0,-1.3333333,0,768)"
       clip-path="url(#clipPath22)" />
    <path
       id="path23"
       d="m 68.69,314.96685 h -3.5"
       style="fill:#000000;fill-opacity:1;fill-rule:nonzero;stroke:#000000;stroke-width:0.8;stroke-linecap:butt;stroke-linejoin:round;stroke-miterlimit:10;stroke-dasharray:none;stroke-opacity:1"
       transform="matrix(1.3333333,0,0,-1.3333333,0,768)" />
    <text
       id="text23"
       xml:space="preserve"
       transform="matrix(1.3333333,0,0,1.3333333,39.8575,353.1067)"><tspan
         id="tspan23"
         style="font-variant:normal;font-weight:normal;font-size:10px;font-family:'DejaVu Sans';writing-mode:lr-tb;fill:#000000;fill-opacity:1;fill-rule:nonzero;stroke:none"
         x="0"
         y="0">10000</tspan></text>
    <path
       id="path24"
       d="M 68.69,355.38093 H 853.2"
       style="fill:none;stroke:#b0b0b0;stroke-width:0.8;stroke-linecap:square;stroke-linejoin:round;stroke-miterlimit:10;stroke-dasharray:none;stroke-opacity:1"
       transform="matrix(1.3333333,0,0,-1.3333333,0,768)"
       clip-path="url(#clipPath25)" />
    <path
       id="path26"
       d="m 68.69,355.38093 h -3.5"
       style="fill:#000000;fill-opacity:1;fill-rule:nonzero;stroke:#000000;stroke-width:0.8;stroke-linecap:butt;stroke-linejoin:round;stroke-miterlimit:10;stroke-dasharray:none;stroke-opacity:1"
       transform="matrix(1.3333333,0,0,-1.3333333,0,768)" />
    <text
       id="text26"
       xml:space="preserve"
       transform="matrix(1.3333333,0,0,1.3333333,39.8575,299.22126)"><tspan
         id="tspan26"
         style="font-variant:normal;font-weight:normal;font-size:10px;font-family:'DejaVu Sans';writing-mode:lr-tb;fill:#000000;fill-opacity:1;fill-rule:nonzero;stroke:none"
         x="0"
         y="0">11000</tspan></text>
    <path
       id="path27"
       d="M 68.69,395.79501 H 853.2"
       style="fill:none;stroke:#b0b0b0;stroke-width:0.8;stroke-linecap:square;stroke-linejoin:round;stroke-miterlimit:10;stroke-dasharray:none;stroke-opacity:1"
       transform="matrix(1.3333333,0,0,-1.3333333,0,768)"
       clip-path="url(#clipPath28)" />
    <path
       id="path29"
       d="m 68.69,395.79501 h -3.5"
       style="fill:#000000;fill-opacity:1;fill-rule:nonzero;stroke:#000000;stroke-width:0.8;stroke-linecap:butt;stroke-linejoin:round;stroke-miterlimit:10;stroke-dasharray:none;stroke-opacity:1"
       transform="matrix(1.3333333,0,0,-1.3333333,0,768)" />
    <text
       id="text29"
       xml:space="preserve"
       transform="matrix(1.3333333,0,0,1.3333333,39.8575,245.33582)"><tspan
         id="tspan29"
         style="font-variant:normal;font-weight:normal;font-size:10px;font-family:'DejaVu Sans';writing-mode:lr-tb;fill:#000000;fill-opacity:1;fill-rule:nonzero;stroke:none"
         x="0"
         y="0">12000</tspan></text>
    <path
       id="path30"
       d="M 68.69,436.20909 H 853.2"
       style="fill:none;stroke:#b0b0b0;stroke-width:0.8;stroke-linecap:square;stroke-linejoin:round;stroke-miterlimit:10;stroke-dasharray:none;stroke-opacity:1"
       transform="matrix(1.3333333,0,0,-1.3333333,0,768)"
       clip-path="url(#clipPath31)" />
    <path
       id="path32"
       d="m 68.69,436.20909 h -3.5"
       style="fill:#000000;fill-opacity:1;fill-rule:nonzero;stroke:#000000;stroke-width:0.8;stroke-linecap:butt;stroke-linejoin:round;stroke-miterlimit:10;stroke-dasharray:none;stroke-opacity:1"
       transform="matrix(1.3333333,0,0,-1.3333333,0,768)" />
    <text
       id="text32"
       xml:space="preserve"
       transform="matrix(1.3333333,0,0,1.3333333,39.8575,191.45038)"><tspan
         id="tspan32"
         style="font-variant:normal;font-weight:normal;font-size:10px;font-family:'DejaVu Sans';writing-mode:lr-tb;fill:#000000;fill-opacity:1;fill-rule:nonzero;stroke:none"
         x="0"
         y="0">13000</tspan></text>
    <path
       id="path33"
       d="M 68.69,476.62317 H 853.2"
       style="fill:none;stroke:#b0b0b0;stroke-width:0.8;stroke-linecap:square;stroke-linejoin:round;stroke-miterlimit:10;stroke-dasharray:none;stroke-opacity:1"
       transform="matrix(1.3333333,0,0,-1.3333333,0,768)"
       clip-path="url(#clipPath34)" />
    <path
       id="path35"
       d="m 68.69,476.62317 h -3.5"
       style="fill:#000000;fill-opacity:1;fill-rule:nonzero;stroke:#000000;stroke-width:0.8;stroke-linecap:butt;stroke-linejoin:round;stroke-miterlimit:10;stroke-dasharray:none;stroke-opacity:1"
       transform="matrix(1.3333333,0,0,-1.3333333,0,768)" />
    <text
       id="text35"
       xml:space="preserve"
       transform="matrix(1.3333333,0,0,1.3333333,39.8575,137.56495)"><tspan
         id="tspan35"
         style="font-variant:normal;font-weight:normal;font-size:10px;font-family:'DejaVu Sans';writing-mode:lr-tb;fill:#000000;fill-opacity:1;fill-rule:nonzero;stroke:none"
         x="0"
         y="0">14000</tspan></text>
    <path
       id="path36"
       d="M 68.69,517.03724 H 853.2"
       style="fill:none;stroke:#b0b0b0;stroke-width:0.8;stroke-linecap:square;stroke-linejoin:round;stroke-miterlimit:10;stroke-dasharray:none;stroke-opacity:1"
       transform="matrix(1.3333333,0,0,-1.3333333,0,768)"
       clip-path="url(#clipPath37)" />
    <path
       id="path38"
       d="m 68.69,517.03724 h -3.5"
       style="fill:#000000;fill-opacity:1;fill-rule:nonzero;stroke:#000000;stroke-width:0.8;stroke-linecap:butt;stroke-linejoin:round;stroke-miterlimit:10;stroke-dasharray:none;stroke-opacity:1"
       transform="matrix(1.3333333,0,0,-1.3333333,0,768)" />
    <text
       id="text38"
       xml:space="preserve"
       transform="matrix(1.3333333,0,0,1.3333333,39.8575,83.679506)"><tspan
         id="tspan38"
         style="font-variant:normal;font-weight:normal;font-size:10px;font-family:'DejaVu Sans';writing-mode:lr-tb;fill:#000000;fill-opacity:1;fill-rule:nonzero;stroke:none"
         x="0"
         y="0">15000</tspan></text>
    <text
       id="text39"
       xml:space="preserve"
       transform="matrix(0,-1.3333333,1.3333333,0,31.753333,256.41208)"><tspan
         id="tspan39"
         style="font-variant:normal;font-weight:normal;font-size:10px;font-family:'DejaVu Sans';writing-mode:lr-tb;fill:#000000;fill-opacity:1;fill-rule:nonzero;stroke:none"
         x="0"
         dx="0 -0.34375 0 0 0 0 0 0 0 0 0 -0.765625"
         y="0">Portfolio Value</tspan></text>
    <path
       id="path39"
       d="m 104.34955,313.7557 8.29291,1.74664 3.94901,0.97627 4.34391,0.8567 3.94901,0.98122 4.34391,-8.81608 3.94901,11.46077 4.34391,0.91976 3.949,-1.13681 4.34391,3.34587 3.94901,7.02735 12.63683,2.77507 3.94901,6.78235 4.34391,-2.51238 3.949,-2.14609 4.34391,-4.03912 3.94901,2.41571 4.34391,0.973 3.94901,1.03603 4.34391,0.52128 3.94901,0.84929 4.34391,2.86514 3.949,1.03716 4.34391,9.74248 3.94901,0.9956 4.34391,0.97574 3.94901,-5.48922 4.34391,-0.22168 3.94901,1.13995 4.34391,4.72449 3.94901,0.98551 4.3439,-0.0827 3.94901,-4.31296 4.34391,0.39067 3.94901,5.73041 4.73881,1.0511 3.94901,1.126 3.94901,1.35248 3.949,4.93006 4.34391,-0.30627 3.94901,1.19298 4.34391,1.04597 3.94901,1.26262 4.34391,-0.13708 3.94901,1.10296 4.73881,-0.22939 3.94901,10.11186 3.949,1.02204 3.94901,0.56777 4.34391,-0.0521 3.94901,-2.61175 4.34391,6.69362 3.94901,1.51375 4.34391,1.27963 3.949,0.79463 4.34391,2.90958 8.29292,2.41983 3.94901,-1.70991 4.34391,-0.0447 3.94901,5.23863 4.34391,-4.69058 4.34391,1.18347 3.949,3.72606 3.94901,-1.95637 4.73881,0.688 3.94901,8.59485 4.34391,0.99352 3.94901,4.09862 3.94901,0.96896 3.94901,1.19799 4.34391,1.00619 3.949,-3.79255 4.34391,8.11407 3.94901,1.73444 4.34391,0.84456 3.94901,2.03325 4.34391,1.17673 3.94901,1.23483 4.34391,5.48159 8.29291,2.26751 8.29292,2.56953 3.94901,0.90727 4.34391,1.56579 3.94901,1.27145 4.3439,1.20546 3.94901,1.27545 4.73881,2.45631 3.94901,1.34295 3.94901,1.02397 3.94901,-4.18148 4.34391,3.40502 3.94901,1.05016 4.3439,-2.36284 4.34391,3.06003 3.94901,4.93716 3.94901,1.30107 8.29292,2.36961 4.34391,6.65655 8.29292,2.43423 3.949,1.33182 4.73881,1.30817 3.94901,-4.55653 7.89802,4.82778 4.34391,0.98006 3.94901,1.34464 4.34391,-4.43573 3.949,-7.52847 4.34391,4.38732 3.94901,-3.01709 4.34391,0.1969 3.94901,4.5964 4.34391,0.53638 3.94901,0.19093 4.34391,1.17018 3.949,1.33888 4.34391,-3.49031 3.94901,-3.66461 4.34391,8.51456 3.94901,0.59748 4.34391,1.2861 3.94901,1.35709 4.34391,1.28158 3.949,2.30069 4.34391,-2.27327 3.94901,5.62901 4.34391,0.70915 3.94901,-0.35926 4.34391,1.12858 3.94901,-1.96351 4.34391,2.49882 3.949,2.73063 4.73882,1.34948 3.949,1.45201 3.94901,-0.22348 16.58584,5.04363 8.29291,2.90695 3.94901,1.2565 4.34391,1.72003 3.94901,-0.15311 4.73881,0.52354 3.94901,3.65177 3.94901,0.85774 3.949,1.43589 4.34391,1.13143 3.94901,1.45139 4.34391,0.41264 3.94901,-3.02734 4.34391,-0.0236 3.94901,-0.338 4.34391,2.65214 3.94901,0.0855 4.3439,1.36864 3.94901,0.0198 4.34391,9.76491 3.94901,1.49779 4.34391,1.18515 3.94901,1.47872 4.34391,0.32097 3.94901,7.56157 4.3439,1.42236 v 0"
       style="fill:none;stroke:#0000ff;stroke-width:1.5;stroke-linecap:square;stroke-linejoin:round;stroke-miterlimit:10;stroke-dasharray:none;stroke-opacity:1"
       transform="matrix(1.3333333,0,0,-1.3333333,0,768)"
       clip-path="url(#clipPath40)" />
    <path
       id="path41"
       d="m 104.34955,314.96685 169.80735,9.63529 165.85836,9.63293 165.85835,9.8572 161.90934,9.84381 49.7575,3.06987 v 0"
       style="fill:none;stroke:#008000;stroke-width:1.5;stroke-linecap:butt;stroke-linejoin:round;stroke-miterlimit:10;stroke-dasharray:5.55, 2.4;stroke-dashoffset:0;stroke-opacity:1"
       transform="matrix(1.3333333,0,0,-1.3333333,0,768)"
       clip-path="url(#clipPath42)" />
    <path
       id="path43"
       d="M 68.69,298.49 V 540.72"
       style="fill:none;stroke:#000000;stroke-width:0.8;stroke-linecap:square;stroke-linejoin:miter;stroke-miterlimit:10;stroke-dasharray:none;stroke-opacity:1"
       transform="matrix(1.3333333,0,0,-1.3333333,0,768)" />
    <path
       id="path44"
       d="M 853.2,298.49 V 540.72"
       style="fill:none;stroke:#000000;stroke-width:0.8;stroke-linecap:square;stroke-linejoin:miter;stroke-miterlimit:10;stroke-dasharray:none;stroke-opacity:1"
       transform="matrix(1.3333333,0,0,-1.3333333,0,768)" />
    <path
       id="path45"
       d="M 68.69,298.49 H 853.2"
       style="fill:none;stroke:#000000;stroke-width:0.8;stroke-linecap:square;stroke-linejoin:miter;stroke-miterlimit:10;stroke-dasharray:none;stroke-opacity:1"
       transform="matrix(1.3333333,0,0,-1.3333333,0,768)" />
    <path
       id="path46"
       d="M 68.69,540.72 H 853.2"
       style="fill:none;stroke:#000000;stroke-width:0.8;stroke-linecap:square;stroke-linejoin:miter;stroke-miterlimit:10;stroke-dasharray:none;stroke-opacity:1"
       transform="matrix(1.3333333,0,0,-1.3333333,0,768)" />
    <path
       id="path47"
       d="m 75.69,503.37625 h 177.95312 c 1.33334,0 2,0.66667 2,2 V 533.72 c 0,1.33333 -0.66666,2 -2,2 H 75.69 c -1.333333,0 -2,-0.66667 -2,-2 v -28.34375 c 0,-1.33333 0.666667,-2 2,-2 z"
       style="fill:#ffffff;fill-opacity:0.8;fill-rule:nonzero;stroke:#cccccc;stroke-width:1;stroke-linecap:butt;stroke-linejoin:miter;stroke-miterlimit:10;stroke-dasharray:none;stroke-opacity:0.8"
       transform="matrix(1.3333333,0,0,-1.3333333,0,768)" />
    <path
       id="path48"
       d="m 77.69,527.62625 h 10 10"
       style="fill:none;stroke:#0000ff;stroke-width:1.5;stroke-linecap:square;stroke-linejoin:round;stroke-miterlimit:10;stroke-dasharray:none;stroke-opacity:1"
       transform="matrix(1.3333333,0,0,-1.3333333,0,768)" />
    <text
       id="text48"
       xml:space="preserve"
       transform="matrix(1.3333333,0,0,1.3333333,140.92,69.165)"><tspan
         id="tspan48"
         style="font-variant:normal;font-weight:normal;font-size:10px;font-family:'DejaVu Sans';writing-mode:lr-tb;fill:#000000;fill-opacity:1;fill-rule:nonzero;stroke:none"
         x="0"
         y="0">Equity Curve</tspan></text>
    <path
       id="path49"
       d="m 77.69,512.95438 h 10 10"
       style="fill:none;stroke:#008000;stroke-width:1.5;stroke-linecap:butt;stroke-linejoin:round;stroke-miterlimit:10;stroke-dasharray:5.55, 2.4;stroke-dashoffset:0;stroke-opacity:1"
       transform="matrix(1.3333333,0,0,-1.3333333,0,768)" />
    <text
       id="text49"
       xml:space="preserve"
       transform="matrix(1.3333333,0,0,1.3333333,140.92,88.7275)"><tspan
         id="tspan49"
         style="font-variant:normal;font-weight:normal;font-size:10px;font-family:'DejaVu Sans';writing-mode:lr-tb;fill:#000000;fill-opacity:1;fill-rule:nonzero;stroke:none"
         x="0"
         dx="0 0 0 0 0 0 0 0 0 0 0 0 0 0 0 0 0 0 0 0 0 0 0 0 -0.21875"
         y="0">Benchmark (cash at interest)</tspan></text>
    <path
       id="path50"
       d="M 68.69,41.96 H 853.2 V 284.19 H 68.69 Z"
       style="fill:#ffffff;fill-opacity:1;fill-rule:nonzero;stroke:none"
       transform="matrix(1.3333333,0,0,-1.3333333,0,768)" />
    <path
       id="path51"
       d="M 100.00564,41.96 V 284.19"
       style="fill:none;stroke:#b0b0b0;stroke-width:0.8;stroke-linecap:square;stroke-linejoin:round;stroke-miterlimit:10;stroke-dasharray:none;stroke-opacity:1"
       transform="matrix(1.3333333,0,0,-1.3333333,0,768)"
       clip-path="url(#clipPath52)" />
    <path
       id="path53"
       d="m 100.00564,41.96 v -3.5"
       style="fill:#000000;fill-opacity:1;fill-rule:nonzero;stroke:#000000;stroke-width:0.8;stroke-linecap:butt;stroke-linejoin:round;stroke-miterlimit:10;stroke-dasharray:none;stroke-opacity:1"
       transform="matrix(1.3333333,0,0,-1.3333333,0,768)" />
    <text
       id="text53"
       xml:space="preserve"
       transform="matrix(1.3333333,0,0,1.3333333,116.38252,731.51167)"><tspan
         id="tspan53"
         style="font-variant:normal;font-weight:normal;font-size:10px;font-family:'DejaVu Sans';writing-mode:lr-tb;fill:#000000;fill-opacity:1;fill-rule:nonzero;stroke:none"
         x="0"
         y="0">2015</tspan></text>
    <path
       id="path54"
       d="M 244.14444,41.96 V 284.19"
       style="fill:none;stroke:#b0b0b0;stroke-width:0.8;stroke-linecap:square;stroke-linejoin:round;stroke-miterlimit:10;stroke-dasharray:none;stroke-opacity:1"
       transform="matrix(1.3333333,0,0,-1.3333333,0,768)"
       clip-path="url(#clipPath55)" />
    <path
       id="path56"
       d="m 244.14444,41.96 v -3.5"
       style="fill:#000000;fill-opacity:1;fill-rule:nonzero;stroke:#000000;stroke-width:0.8;stroke-linecap:butt;stroke-linejoin:round;stroke-miterlimit:10;stroke-dasharray:none;stroke-opacity:1"
       transform="matrix(1.3333333,0,0,-1.3333333,0,768)" />
    <text
       id="text56"
       xml:space="preserve"
       transform="matrix(1.3333333,0,0,1.3333333,308.56759,731.51167)"><tspan
         id="tspan56"
         style="font-variant:normal;font-weight:normal;font-size:10px;font-family:'DejaVu Sans';writing-mode:lr-tb;fill:#000000;fill-opacity:1;fill-rule:nonzero;stroke:none"
         x="0"
         y="0">2016</tspan></text>
    <path
       id="path57"
       d="M 388.67815,41.96 V 284.19"
       style="fill:none;stroke:#b0b0b0;stroke-width:0.8;stroke-linecap:square;stroke-linejoin:round;stroke-miterlimit:10;stroke-dasharray:none;stroke-opacity:1"
       transform="matrix(1.3333333,0,0,-1.3333333,0,768)"
       clip-path="url(#clipPath58)" />
    <path
       id="path59"
       d="m 388.67815,41.96 v -3.5"
       style="fill:#000000;fill-opacity:1;fill-rule:nonzero;stroke:#000000;stroke-width:0.8;stroke-linecap:butt;stroke-linejoin:round;stroke-miterlimit:10;stroke-dasharray:none;stroke-opacity:1"
       transform="matrix(1.3333333,0,0,-1.3333333,0,768)" />
    <text
       id="text59"
       xml:space="preserve"
       transform="matrix(1.3333333,0,0,1.3333333,501.2792,731.51167)"><tspan
         id="tspan59"
         style="font-variant:normal;font-weight:normal;font-size:10px;font-family:'DejaVu Sans';writing-mode:lr-tb;fill:#000000;fill-opacity:1;fill-rule:nonzero;stroke:none"
         x="0"
         y="0">2017</tspan></text>
    <path
       id="path60"
       d="M 532.81695,41.96 V 284.19"
       style="fill:none;stroke:#b0b0b0;stroke-width:0.8;stroke-linecap:square;stroke-linejoin:round;stroke-miterlimit:10;stroke-dasharray:none;stroke-opacity:1"
       transform="matrix(1.3333333,0,0,-1.3333333,0,768)"
       clip-path="url(#clipPath61)" />
    <path
       id="path62"
       d="m 532.81695,41.96 v -3.5"
       style="fill:#000000;fill-opacity:1;fill-rule:nonzero;stroke:#000000;stroke-width:0.8;stroke-linecap:butt;stroke-linejoin:round;stroke-miterlimit:10;stroke-dasharray:none;stroke-opacity:1"
       transform="matrix(1.3333333,0,0,-1.3333333,0,768)" />
    <text
       id="text62"
       xml:space="preserve"
       transform="matrix(1.3333333,0,0,1.3333333,693.46427,731.51167)"><tspan
         id="tspan62"
         style="font-variant:normal;font-weight:normal;font-size:10px;font-family:'DejaVu Sans';writing-mode:lr-tb;fill:#000000;fill-opacity:1;fill-rule:nonzero;stroke:none"
         x="0"
         y="0">2018</tspan></text>
    <path
       id="path63"
       d="M 676.95576,41.96 V 284.19"
       style="fill:none;stroke:#b0b0b0;stroke-width:0.8;stroke-linecap:square;stroke-linejoin:round;stroke-miterlimit:10;stroke-dasharray:none;stroke-opacity:1"
       transform="matrix(1.3333333,0,0,-1.3333333,0,768)"
       clip-path="url(#clipPath64)" />
    <path
       id="path65"
       d="m 676.95576,41.96 v -3.5"
       style="fill:#000000;fill-opacity:1;fill-rule:nonzero;stroke:#000000;stroke-width:0.8;stroke-linecap:butt;stroke-linejoin:round;stroke-miterlimit:10;stroke-dasharray:none;stroke-opacity:1"
       transform="matrix(1.3333333,0,0,-1.3333333,0,768)" />
    <text
       id="text65"
       xml:space="preserve"
       transform="matrix(1.3333333,0,0,1.3333333,885.64934,731.51167)"><tspan
         id="tspan65"
         style="font-variant:normal;font-weight:normal;font-size:10px;font-family:'DejaVu Sans';writing-mode:lr-tb;fill:#000000;fill-opacity:1;fill-rule:nonzero;stroke:none"
         x="0"
         y="0">2019</tspan></text>
    <path
       id="path66"
       d="M 821.09456,41.96 V 284.19"
       style="fill:none;stroke:#b0b0b0;stroke-width:0.8;stroke-linecap:square;stroke-linejoin:round;stroke-miterlimit:10;stroke-dasharray:none;stroke-opacity:1"
       transform="matrix(1.3333333,0,0,-1.3333333,0,768)"
       clip-path="url(#clipPath67)" />
    <path
       id="path68"
       d="m 821.09456,41.96 v -3.5"
       style="fill:#000000;fill-opacity:1;fill-rule:nonzero;stroke:#000000;stroke-width:0.8;stroke-linecap:butt;stroke-linejoin:round;stroke-miterlimit:10;stroke-dasharray:none;stroke-opacity:1"
       transform="matrix(1.3333333,0,0,-1.3333333,0,768)" />
    <text
       id="text68"
       xml:space="preserve"
       transform="matrix(1.3333333,0,0,1.3333333,1077.8344,731.51167)"><tspan
         id="tspan68"
         style="font-variant:normal;font-weight:normal;font-size:10px;font-family:'DejaVu Sans';writing-mode:lr-tb;fill:#000000;fill-opacity:1;fill-rule:nonzero;stroke:none"
         x="0"
         y="0">2020</tspan></text>
    <text
       id="text69"
       xml:space="preserve"
       transform="matrix(1.3333333,0,0,1.3333333,598.65583,749.74083)"><tspan
         id="tspan69"
         style="font-variant:normal;font-weight:normal;font-size:10px;font-family:'DejaVu Sans';writing-mode:lr-tb;fill:#000000;fill-opacity:1;fill-rule:nonzero;stroke:none"
         x="0"
         y="0">Date</tspan></text>
    <path
       id="path69"
       d="M 68.69,69.612501 H 853.2"
       style="fill:none;stroke:#b0b0b0;stroke-width:0.8;stroke-linecap:square;stroke-linejoin:round;stroke-miterlimit:10;stroke-dasharray:none;stroke-opacity:1"
       transform="matrix(1.3333333,0,0,-1.3333333,0,768)"
       clip-path="url(#clipPath70)" />
    <path
       id="path71"
       d="m 68.69,69.612501 h -3.5"
       style="fill:#000000;fill-opacity:1;fill-rule:nonzero;stroke:#000000;stroke-width:0.8;stroke-linecap:butt;stroke-linejoin:round;stroke-miterlimit:10;stroke-dasharray:none;stroke-opacity:1"
       transform="matrix(1.3333333,0,0,-1.3333333,0,768)" />
    <text
       id="text71"
       xml:space="preserve"
       transform="matrix(1.3333333,0,0,1.3333333,44.091875,680.24583)"><tspan
         id="tspan71"
         style="font-variant:normal;font-weight:normal;font-size:10px;font-family:'DejaVu Sans';writing-mode:lr-tb;fill:#000000;fill-opacity:1;fill-rule:nonzero;stroke:none"
         x="0"
         y="0">0.020</tspan></text>
    <g
       id="g73">
      <path
         d="M 106,355 H 732 V 272 H 106 Z"
         style="fill:#000000;fill-opacity:1;fill-rule:nonzero;stroke:none"
         transform="matrix(0.01333333,0,0,-0.01333333,32.92,680.24583)"
         clip-path="url(#clipPath72)"
         id="path73" />
    </g>
    <path
       id="path74"
       d="M 68.69,120.50426 H 853.2"
       style="fill:none;stroke:#b0b0b0;stroke-width:0.8;stroke-linecap:square;stroke-linejoin:round;stroke-miterlimit:10;stroke-dasharray:none;stroke-opacity:1"
       transform="matrix(1.3333333,0,0,-1.3333333,0,768)"
       clip-path="url(#clipPath75)" />
    <path
       id="path76"
       d="m 68.69,120.50426 h -3.5"
       style="fill:#000000;fill-opacity:1;fill-rule:nonzero;stroke:#000000;stroke-width:0.8;stroke-linecap:butt;stroke-linejoin:round;stroke-miterlimit:10;stroke-dasharray:none;stroke-opacity:1"
       transform="matrix(1.3333333,0,0,-1.3333333,0,768)" />
    <text
       id="text76"
       xml:space="preserve"
       transform="matrix(1.3333333,0,0,1.3333333,44.091875,612.39015)"><tspan
         id="tspan76"
         style="font-variant:normal;font-weight:normal;font-size:10px;font-family:'DejaVu Sans';writing-mode:lr-tb;fill:#000000;fill-opacity:1;fill-rule:nonzero;stroke:none"
         x="0"
         y="0">0.015</tspan></text>
    <g
       id="g78">
      <path
         d="M 106,355 H 732 V 272 H 106 Z"
         style="fill:#000000;fill-opacity:1;fill-rule:nonzero;stroke:none"
         transform="matrix(0.01333333,0,0,-0.01333333,32.92,612.39015)"
         clip-path="url(#clipPath77)"
         id="path78" />
    </g>
    <path
       id="path79"
       d="M 68.69,171.39602 H 853.2"
       style="fill:none;stroke:#b0b0b0;stroke-width:0.8;stroke-linecap:square;stroke-linejoin:round;stroke-miterlimit:10;stroke-dasharray:none;stroke-opacity:1"
       transform="matrix(1.3333333,0,0,-1.3333333,0,768)"
       clip-path="url(#clipPath80)" />
    <path
       id="path81"
       d="m 68.69,171.39602 h -3.5"
       style="fill:#000000;fill-opacity:1;fill-rule:nonzero;stroke:#000000;stroke-width:0.8;stroke-linecap:butt;stroke-linejoin:round;stroke-miterlimit:10;stroke-dasharray:none;stroke-opacity:1"
       transform="matrix(1.3333333,0,0,-1.3333333,0,768)" />
    <text
       id="text81"
       xml:space="preserve"
       transform="matrix(1.3333333,0,0,1.3333333,44.091875,544.53447)"><tspan
         id="tspan81"
         style="font-variant:normal;font-weight:normal;font-size:10px;font-family:'DejaVu Sans';writing-mode:lr-tb;fill:#000000;fill-opacity:1;fill-rule:nonzero;stroke:none"
         x="0"
         y="0">0.010</tspan></text>
    <g
       id="g83">
      <path
         d="M 106,355 H 732 V 272 H 106 Z"
         style="fill:#000000;fill-opacity:1;fill-rule:nonzero;stroke:none"
         transform="matrix(0.01333333,0,0,-0.01333333,32.92,544.53447)"
         clip-path="url(#clipPath82)"
         id="path83" />
    </g>
    <path
       id="path84"
       d="M 68.69,222.28778 H 853.2"
       style="fill:none;stroke:#b0b0b0;stroke-width:0.8;stroke-linecap:square;stroke-linejoin:round;stroke-miterlimit:10;stroke-dasharray:none;stroke-opacity:1"
       transform="matrix(1.3333333,0,0,-1.3333333,0,768)"
       clip-path="url(#clipPath85)" />
    <path
       id="path86"
       d="m 68.69,222.28778 h -3.5"
       style="fill:#000000;fill-opacity:1;fill-rule:nonzero;stroke:#000000;stroke-width:0.8;stroke-linecap:butt;stroke-linejoin:round;stroke-miterlimit:10;stroke-dasharray:none;stroke-opacity:1"
       transform="matrix(1.3333333,0,0,-1.3333333,0,768)" />
    <text
       id="text86"
       xml:space="preserve"
       transform="matrix(1.3333333,0,0,1.3333333,44.091875,476.67879)"><tspan
         id="tspan86"
         style="font-variant:normal;font-weight:normal;font-size:10px;font-family:'DejaVu Sans';writing-mode:lr-tb;fill:#000000;fill-opacity:1;fill-rule:nonzero;stroke:none"
         x="0"
         y="0">0.005</tspan></text>
    <g
       id="g88">
      <path
         d="M 106,355 H 732 V 272 H 106 Z"
         style="fill:#000000;fill-opacity:1;fill-rule:nonzero;stroke:none"
         transform="matrix(0.01333333,0,0,-0.01333333,32.92,476.67879)"
         clip-path="url(#clipPath87)"
         id="path88" />
    </g>
    <path
       id="path89"
       d="M 68.69,273.17955 H 853.2"
       style="fill:none;stroke:#b0b0b0;stroke-width:0.8;stroke-linecap:square;stroke-linejoin:round;stroke-miterlimit:10;stroke-dasharray:none;stroke-opacity:1"
       transform="matrix(1.3333333,0,0,-1.3333333,0,768)"
       clip-path="url(#clipPath90)" />
    <path
       id="path91"
       d="m 68.69,273.17955 h -3.5"
       style="fill:#000000;fill-opacity:1;fill-rule:nonzero;stroke:#000000;stroke-width:0.8;stroke-linecap:butt;stroke-linejoin:round;stroke-miterlimit:10;stroke-dasharray:none;stroke-opacity:1"
       transform="matrix(1.3333333,0,0,-1.3333333,0,768)" />
    <text
       id="text91"
       xml:space="preserve"
       transform="matrix(1.3333333,0,0,1.3333333,44.086667,408.82311)"><tspan
         id="tspan91"
         style="font-variant:normal;font-weight:normal;font-size:10px;font-family:'DejaVu Sans';writing-mode:lr-tb;fill:#000000;fill-opacity:1;fill-rule:nonzero;stroke:none"
         x="0"
         y="0">0.000</tspan></text>
    <text
       id="text92"
       xml:space="preserve"
       transform="matrix(0,-1.3333333,1.3333333,0,24.815833,585.98333)"><tspan
         id="tspan92"
         style="font-variant:normal;font-weight:normal;font-size:10px;font-family:'DejaVu Sans';writing-mode:lr-tb;fill:#000000;fill-opacity:1;fill-rule:nonzero;stroke:none"
         x="0"
         y="0">Drawdown</tspan></text>
    <path
       id="path92"
       d="m 104.34955,273.17955 h 20.53484 l 4.34391,-220.209095 3.94901,220.209095 h 4.34391 l 3.949,-28.14903 4.34391,28.14903 h 20.53485 l 4.34391,-59.49045 3.949,-50.81703 4.34391,-95.642057 3.94901,57.201557 4.34391,23.03959 3.94901,24.53201 4.34391,12.3433 3.94901,20.11025 4.34391,67.84344 3.949,0.87939 h 12.63683 l 3.94901,-126.24467 4.34391,-5.09853 3.94901,26.21753 4.34391,105.12567 h 3.94901 l 4.3439,-1.89812 3.94901,-98.93769 4.34391,8.96189 3.94901,91.87392 h 16.58583 l 4.34391,-6.86808 3.94901,6.86808 h 8.29292 l 4.34391,-3.0525 3.94901,3.0525 4.73881,-5.09725 3.94901,5.09725 h 7.89801 l 4.34391,-1.12988 3.94901,-56.61801 4.34391,57.74789 h 24.87875 l 3.94901,-36.07303 4.34391,-0.9439 3.94901,37.01693 4.34391,-98.24515 4.34391,24.78806 3.949,73.45709 3.94901,-40.95821 4.73881,14.40384 3.94901,26.55437 h 20.53485 l 3.949,-76.93282 4.34391,76.93282 h 74.63626 l 3.94901,-79.63057 4.34391,64.84392 3.94901,14.78665 4.3439,-44.97423 4.34391,44.97423 h 37.51558 l 3.94901,-83.44617 3.94901,43.66042 3.94901,39.78575 h 8.29292 l 4.34391,-80.85615 3.949,-137.231723 4.34391,79.973663 3.94901,-54.996512 4.34391,3.589143 3.94901,83.784759 4.34391,9.77742 3.94901,3.4803 4.34391,21.33051 3.949,24.40551 4.34391,-63.62267 3.94901,-66.799864 4.34391,155.206604 3.94901,10.89104 4.34391,11.06797 h 12.24192 l 4.34391,-41.02514 3.94901,41.02514 h 4.34391 l 3.94901,-6.43714 4.34391,6.43714 3.94901,-35.13397 4.34391,35.13397 h 12.63682 l 3.94901,-3.95663 3.94901,3.95663 h 29.22266 l 3.94901,-2.66122 4.73881,2.66122 h 24.48385 l 3.94901,-51.79451 4.34391,-0.40373 3.94901,-5.78284 4.34391,45.37535 3.94901,1.46334 4.3439,11.14239 h 33.17167 v 0"
       style="fill:none;stroke:#ff0000;stroke-width:1.5;stroke-linecap:square;stroke-linejoin:round;stroke-miterlimit:10;stroke-dasharray:none;stroke-opacity:1"
       transform="matrix(1.3333333,0,0,-1.3333333,0,768)"
       clip-path="url(#clipPath93)" />
    <path
       id="path94"
       d="M 68.69,41.96 V 284.19"
       style="fill:none;stroke:#000000;stroke-width:0.8;stroke-linecap:square;stroke-linejoin:miter;stroke-miterlimit:10;stroke-dasharray:none;stroke-opacity:1"
       transform="matrix(1.3333333,0,0,-1.3333333,0,768)" />
    <path
       id="path95"
       d="M 853.2,41.96 V 284.19"
       style="fill:none;stroke:#000000;stroke-width:0.8;stroke-linecap:square;stroke-linejoin:miter;stroke-miterlimit:10;stroke-dasharray:none;stroke-opacity:1"
       transform="matrix(1.3333333,0,0,-1.3333333,0,768)" />
    <path
       id="path96"
       d="M 68.69,41.96 H 853.2"
       style="fill:none;stroke:#000000;stroke-width:0.8;stroke-linecap:square;stroke-linejoin:miter;stroke-miterlimit:10;stroke-dasharray:none;stroke-opacity:1"
       transform="matrix(1.3333333,0,0,-1.3333333,0,768)" />
    <path
       id="path97"
       d="M 68.69,284.19 H 853.2"
       style="fill:none;stroke:#000000;stroke-width:0.8;stroke-linecap:square;stroke-linejoin:miter;stroke-miterlimit:10;stroke-dasharray:none;stroke-opacity:1"
       transform="matrix(1.3333333,0,0,-1.3333333,0,768)" />
    <path
       id="path98"
       d="M 761.075,46.96 H 846.2 c 1.33333,0 2,0.666667 2,2 v 13.671875 c 0,1.333333 -0.66667,2 -2,2 h -85.125 c -1.33333,0 -2,-0.666667 -2,-2 V 48.96 c 0,-1.333333 0.66667,-2 2,-2 z"
       style="fill:#ffffff;fill-opacity:0.8;fill-rule:nonzero;stroke:#cccccc;stroke-width:1;stroke-linecap:butt;stroke-linejoin:miter;stroke-miterlimit:10;stroke-dasharray:none;stroke-opacity:0.8"
       transform="matrix(1.3333333,0,0,-1.3333333,0,768)" />
    <path
       id="path99"
       d="m 763.075,56.538125 h 10 10"
       style="fill:none;stroke:#ff0000;stroke-width:1.5;stroke-linecap:square;stroke-linejoin:round;stroke-miterlimit:10;stroke-dasharray:none;stroke-opacity:1"
       transform="matrix(1.3333333,0,0,-1.3333333,0,768)" />
    <text
       id="text99"
       xml:space="preserve"
       transform="matrix(1.3333333,0,0,1.3333333,1054.7667,697.2825)"><tspan
         id="tspan99"
         style="font-variant:normal;font-weight:normal;font-size:10px;font-family:'DejaVu Sans';writing-mode:lr-tb;fill:#000000;fill-opacity:1;fill-rule:nonzero;stroke:none"
         x="0"
         y="0">Drawdown</tspan></text>
    <text
       id="text100"
       xml:space="preserve"
       transform="matrix(1.3333333,0,0,1.3333333,487.86458,29.5475)"><tspan
         id="tspan100"
         style="font-variant:normal;font-weight:700;font-size:14px;font-family:'DejaVu Sans';writing-mode:lr-tb;fill:#000000;fill-opacity:1;fill-rule:nonzero;stroke:none"
         x="0"
         y="0">Backtest Results</tspan></text>
  </g>
</svg>
