<?xml version="1.0" encoding="UTF-8" standalone="no"?>
<!-- Created with Inkscape (http://www.inkscape.org/) -->

<svg
   version="1.1"
   id="svg1"
   width="1152"
   height="768"
   viewBox="0 0 1152 768"
   xmlns="http://www.w3.org/2000/svg"
   xmlns:svg="http://www.w3.org/2000/svg">
  <defs
     id="defs1">
    <clipPath
       clipPathUnits="userSpaceOnUse"
       id="clipPath4">
      <path
         d="M 51.41,45.56 H 853.2 V 547.6125 H 51.41 Z"
         id="path4" />
    </clipPath>
    <clipPath
       clipPathUnits="userSpaceOnUse"
       id="clipPath6">
      <path
         d="M 51.41,45.56 H 853.2 V 547.6125 H 51.41 Z"
         id="path6" />
    </clipPath>
    <clipPath
       clipPathUnits="userSpaceOnUse"
       id="clipPath8">
      <path
         d="M 51.41,45.56 H 853.2 V 547.6125 H 51.41 Z"
         id="path8" />
    </clipPath>
    <clipPath
       clipPathUnits="userSpaceOnUse"
       id="clipPath10">
      <path
         d="M 51.41,45.56 H 853.2 V 547.6125 H 51.41 Z"
         id="path10" />
    </clipPath>
    <clipPath
       clipPathUnits="userSpaceOnUse"
       id="clipPath12">
      <path
         d="M 51.41,45.56 H 853.2 V 547.6125 H 51.41 Z"
         id="path12" />
    </clipPath>
    <clipPath
       clipPathUnits="userSpaceOnUse"
       id="clipPath14">
      <path
         d="M 51.41,45.56 H 853.2 V 547.6125 H 51.41 Z"
         id="path14" />
    </clipPath>
    <clipPath
       clipPathUnits="userSpaceOnUse"
       id="clipPath16">
      <path
         d="M 51.41,45.56 H 853.2 V 547.6125 H 51.41 Z"
         id="path16" />
    </clipPath>
    <clipPath
       clipPathUnits="userSpaceOnUse"
       id="clipPath18">
      <path
         d="M 51.41,45.56 H 853.2 V 547.6125 H 51.41 Z"
         id="path18" />
    </clipPath>
    <clipPath
       clipPathUnits="userSpaceOnUse"
       id="clipPath20">
      <path
         d="M 51.41,45.56 H 853.2 V 547.6125 H 51.41 Z"
         id="path20" />
    </clipPath>
    <clipPath
       clipPathUnits="userSpaceOnUse"
       id="clipPath22">
      <path
         d="M 51.41,45.56 H 853.2 V 547.6125 H 51.41 Z"
         id="path22" />
    </clipPath>
    <clipPath
       clipPathUnits="userSpaceOnUse"
       id="clipPath24">
      <path
         d="M 51.41,45.56 H 853.2 V 547.6125 H 51.41 Z"
         id="path24" />
    </clipPath>
    <clipPath
       clipPathUnits="userSpaceOnUse"
       id="clipPath26">
      <path
         d="M 51.41,45.56 H 853.2 V 547.6125 H 51.41 Z"
         id="path26" />
    </clipPath>
    <clipPath
       clipPathUnits="userSpaceOnUse"
       id="clipPath28">
      <path
         d="M 51.41,45.56 H 853.2 V 547.6125 H 51.41 Z"
         id="path28" />
    </clipPath>
    <clipPath
       clipPathUnits="userSpaceOnUse"
       id="clipPath30">
      <path
         d="M 51.41,45.56 H 853.2 V 547.6125 H 51.41 Z"
         id="path30" />
    </clipPath>
    <clipPath
       clipPathUnits="userSpaceOnUse"
       id="clipPath32">
      <path
         d="M 51.41,45.56 H 853.2 V 547.6125 H 51.41 Z"
         id="path32" />
    </clipPath>
  </defs>
  <g
     id="g1">
    <path
       id="path1"
       d="M 0,0 H 864 V 576 H 0 Z"
       style="fill:#ffffff;fill-opacity:1;fill-rule:nonzero;stroke:none"
       transform="matrix(1.3333333,0,0,-1.3333333,0,768)" />
    <path
       id="path2"
       d="M 51.41,45.56 H 853.2 V 547.6125 H 51.41 Z"
       style="fill:#ffffff;fill-opacity:1;fill-rule:nonzero;stroke:none"
       transform="matrix(1.3333333,0,0,-1.3333333,0,768)" />
    <path
       id="path3"
       d="M 87.855,45.56 V 547.6125"
       style="fill:none;stroke:#cccccc;stroke-width:0.8;stroke-linecap:round;stroke-linejoin:round;stroke-miterlimit:10;stroke-dasharray:none;stroke-opacity:1"
       transform="matrix(1.3333333,0,0,-1.3333333,0,768)"
       clip-path="url(#clipPath4)" />
    <text
       id="text4"
       xml:space="preserve"
       transform="matrix(1.3333333,0,0,1.3333333,112.69208,728.045)"><tspan
         id="tspan4"
         style="font-variant:normal;font-weight:normal;font-size:12px;font-family:Arial;writing-mode:lr-tb;fill:#262626;fill-opacity:1;fill-rule:nonzero;stroke:none"
         x="0"
         y="0">0</tspan></text>
    <path
       id="path5"
       d="M 203.92188,45.56 V 547.6125"
       style="fill:none;stroke:#cccccc;stroke-width:0.8;stroke-linecap:round;stroke-linejoin:round;stroke-miterlimit:10;stroke-dasharray:none;stroke-opacity:1"
       transform="matrix(1.3333333,0,0,-1.3333333,0,768)"
       clip-path="url(#clipPath6)" />
    <text
       id="text6"
       xml:space="preserve"
       transform="matrix(1.3333333,0,0,1.3333333,258.55209,728.045)"><tspan
         id="tspan6"
         style="font-variant:normal;font-weight:normal;font-size:12px;font-family:Arial;writing-mode:lr-tb;fill:#262626;fill-opacity:1;fill-rule:nonzero;stroke:none"
         x="0"
         y="0">200</tspan></text>
    <path
       id="path7"
       d="M 319.98876,45.56 V 547.6125"
       style="fill:none;stroke:#cccccc;stroke-width:0.8;stroke-linecap:round;stroke-linejoin:round;stroke-miterlimit:10;stroke-dasharray:none;stroke-opacity:1"
       transform="matrix(1.3333333,0,0,-1.3333333,0,768)"
       clip-path="url(#clipPath8)" />
    <text
       id="text8"
       xml:space="preserve"
       transform="matrix(1.3333333,0,0,1.3333333,413.30793,728.045)"><tspan
         id="tspan8"
         style="font-variant:normal;font-weight:normal;font-size:12px;font-family:Arial;writing-mode:lr-tb;fill:#262626;fill-opacity:1;fill-rule:nonzero;stroke:none"
         x="0"
         y="0">400</tspan></text>
    <path
       id="path9"
       d="M 436.05564,45.56 V 547.6125"
       style="fill:none;stroke:#cccccc;stroke-width:0.8;stroke-linecap:round;stroke-linejoin:round;stroke-miterlimit:10;stroke-dasharray:none;stroke-opacity:1"
       transform="matrix(1.3333333,0,0,-1.3333333,0,768)"
       clip-path="url(#clipPath10)" />
    <text
       id="text10"
       xml:space="preserve"
       transform="matrix(1.3333333,0,0,1.3333333,568.06377,728.045)"><tspan
         id="tspan10"
         style="font-variant:normal;font-weight:normal;font-size:12px;font-family:Arial;writing-mode:lr-tb;fill:#262626;fill-opacity:1;fill-rule:nonzero;stroke:none"
         x="0"
         y="0">600</tspan></text>
    <path
       id="path11"
       d="M 552.12252,45.56 V 547.6125"
       style="fill:none;stroke:#cccccc;stroke-width:0.8;stroke-linecap:round;stroke-linejoin:round;stroke-miterlimit:10;stroke-dasharray:none;stroke-opacity:1"
       transform="matrix(1.3333333,0,0,-1.3333333,0,768)"
       clip-path="url(#clipPath12)" />
    <text
       id="text12"
       xml:space="preserve"
       transform="matrix(1.3333333,0,0,1.3333333,722.8196,728.045)"><tspan
         id="tspan12"
         style="font-variant:normal;font-weight:normal;font-size:12px;font-family:Arial;writing-mode:lr-tb;fill:#262626;fill-opacity:1;fill-rule:nonzero;stroke:none"
         x="0"
         y="0">800</tspan></text>
    <path
       id="path13"
       d="M 668.1894,45.56 V 547.6125"
       style="fill:none;stroke:#cccccc;stroke-width:0.8;stroke-linecap:round;stroke-linejoin:round;stroke-miterlimit:10;stroke-dasharray:none;stroke-opacity:1"
       transform="matrix(1.3333333,0,0,-1.3333333,0,768)"
       clip-path="url(#clipPath14)" />
    <text
       id="text14"
       xml:space="preserve"
       transform="matrix(1.3333333,0,0,1.3333333,873.12753,728.045)"><tspan
         id="tspan14"
         style="font-variant:normal;font-weight:normal;font-size:12px;font-family:Arial;writing-mode:lr-tb;fill:#262626;fill-opacity:1;fill-rule:nonzero;stroke:none"
         x="0"
         y="0">1000</tspan></text>
    <path
       id="path15"
       d="M 784.25627,45.56 V 547.6125"
       style="fill:none;stroke:#cccccc;stroke-width:0.8;stroke-linecap:round;stroke-linejoin:round;stroke-miterlimit:10;stroke-dasharray:none;stroke-opacity:1"
       transform="matrix(1.3333333,0,0,-1.3333333,0,768)"
       clip-path="url(#clipPath16)" />
    <text
       id="text16"
       xml:space="preserve"
       transform="matrix(1.3333333,0,0,1.3333333,1027.8834,728.045)"><tspan
         id="tspan16"
         style="font-variant:normal;font-weight:normal;font-size:12px;font-family:Arial;writing-mode:lr-tb;fill:#262626;fill-opacity:1;fill-rule:nonzero;stroke:none"
         x="0"
         y="0">1200</tspan></text>
    <text
       id="text17"
       xml:space="preserve"
       transform="matrix(1.3333333,0,0,1.3333333,583.365,749.92)"><tspan
         id="tspan17"
         style="font-variant:normal;font-weight:normal;font-size:14px;font-family:Arial;writing-mode:lr-tb;fill:#262626;fill-opacity:1;fill-rule:nonzero;stroke:none"
         x="0"
         y="0">Date</tspan></text>
    <path
       id="path17"
       d="M 51.41,68.380568 H 853.2"
       style="fill:none;stroke:#cccccc;stroke-width:0.8;stroke-linecap:round;stroke-linejoin:round;stroke-miterlimit:10;stroke-dasharray:none;stroke-opacity:1"
       transform="matrix(1.3333333,0,0,-1.3333333,0,768)"
       clip-path="url(#clipPath18)" />
    <text
       id="text18"
       xml:space="preserve"
       transform="matrix(1.3333333,0,0,1.3333333,36.984167,682.55508)"><tspan
         id="tspan18"
         style="font-variant:normal;font-weight:normal;font-size:12px;font-family:Arial;writing-mode:lr-tb;fill:#262626;fill-opacity:1;fill-rule:nonzero;stroke:none"
         x="0"
         y="0">0.0</tspan></text>
    <path
       id="path19"
       d="M 51.41,159.66284 H 853.2"
       style="fill:none;stroke:#cccccc;stroke-width:0.8;stroke-linecap:round;stroke-linejoin:round;stroke-miterlimit:10;stroke-dasharray:none;stroke-opacity:1"
       transform="matrix(1.3333333,0,0,-1.3333333,0,768)"
       clip-path="url(#clipPath20)" />
    <text
       id="text20"
       xml:space="preserve"
       transform="matrix(1.3333333,0,0,1.3333333,36.984167,560.84538)"><tspan
         id="tspan20"
         style="font-variant:normal;font-weight:normal;font-size:12px;font-family:Arial;writing-mode:lr-tb;fill:#262626;fill-opacity:1;fill-rule:nonzero;stroke:none"
         x="0"
         y="0">0.2</tspan></text>
    <path
       id="path21"
       d="M 51.41,250.94511 H 853.2"
       style="fill:none;stroke:#cccccc;stroke-width:0.8;stroke-linecap:round;stroke-linejoin:round;stroke-miterlimit:10;stroke-dasharray:none;stroke-opacity:1"
       transform="matrix(1.3333333,0,0,-1.3333333,0,768)"
       clip-path="url(#clipPath22)" />
    <text
       id="text22"
       xml:space="preserve"
       transform="matrix(1.3333333,0,0,1.3333333,36.984167,439.13568)"><tspan
         id="tspan22"
         style="font-variant:normal;font-weight:normal;font-size:12px;font-family:Arial;writing-mode:lr-tb;fill:#262626;fill-opacity:1;fill-rule:nonzero;stroke:none"
         x="0"
         y="0">0.4</tspan></text>
    <path
       id="path23"
       d="M 51.41,342.22739 H 853.2"
       style="fill:none;stroke:#cccccc;stroke-width:0.8;stroke-linecap:round;stroke-linejoin:round;stroke-miterlimit:10;stroke-dasharray:none;stroke-opacity:1"
       transform="matrix(1.3333333,0,0,-1.3333333,0,768)"
       clip-path="url(#clipPath24)" />
    <text
       id="text24"
       xml:space="preserve"
       transform="matrix(1.3333333,0,0,1.3333333,36.984167,317.42598)"><tspan
         id="tspan24"
         style="font-variant:normal;font-weight:normal;font-size:12px;font-family:Arial;writing-mode:lr-tb;fill:#262626;fill-opacity:1;fill-rule:nonzero;stroke:none"
         x="0"
         y="0">0.6</tspan></text>
    <path
       id="path25"
       d="M 51.41,433.50966 H 853.2"
       style="fill:none;stroke:#cccccc;stroke-width:0.8;stroke-linecap:round;stroke-linejoin:round;stroke-miterlimit:10;stroke-dasharray:none;stroke-opacity:1"
       transform="matrix(1.3333333,0,0,-1.3333333,0,768)"
       clip-path="url(#clipPath26)" />
    <text
       id="text26"
       xml:space="preserve"
       transform="matrix(1.3333333,0,0,1.3333333,36.984167,195.71629)"><tspan
         id="tspan26"
         style="font-variant:normal;font-weight:normal;font-size:12px;font-family:Arial;writing-mode:lr-tb;fill:#262626;fill-opacity:1;fill-rule:nonzero;stroke:none"
         x="0"
         y="0">0.8</tspan></text>
    <path
       id="path27"
       d="M 51.41,524.79193 H 853.2"
       style="fill:none;stroke:#cccccc;stroke-width:0.8;stroke-linecap:round;stroke-linejoin:round;stroke-miterlimit:10;stroke-dasharray:none;stroke-opacity:1"
       transform="matrix(1.3333333,0,0,-1.3333333,0,768)"
       clip-path="url(#clipPath28)" />
    <text
       id="text28"
       xml:space="preserve"
       transform="matrix(1.3333333,0,0,1.3333333,36.984167,74.006591)"><tspan
         id="tspan28"
         style="font-variant:normal;font-weight:normal;font-size:12px;font-family:Arial;writing-mode:lr-tb;fill:#262626;fill-opacity:1;fill-rule:nonzero;stroke:none"
         x="0"
         y="0">1.0</tspan></text>
    <text
       id="text29"
       xml:space="preserve"
       transform="matrix(0,-1.3333333,1.3333333,0,27.9425,395.74958)"><tspan
         id="tspan29"
         style="font-variant:normal;font-weight:normal;font-size:14px;font-family:Arial;writing-mode:lr-tb;fill:#262626;fill-opacity:1;fill-rule:nonzero;stroke:none"
         x="0"
         dx="0 -1.03125"
         y="0">Value</tspan></text>
    <path
       id="path29"
       d="m 87.855,145.69121 0.580334,9.31437 0.580335,3.72589 0.580334,12.10885 0.580335,14.90333 0.580334,-13.35081 0.580334,1.24196 0.580335,10.24579 0.580334,-4.65707 1.160669,11.1772 0.580334,16.45584 0.580335,-4.6573 0.580334,41.60472 0.580335,23.59683 0.580334,-6.20958 0.580334,-24.21794 0.580335,13.97192 0.580334,9.62492 0.580335,0.6211 0.580334,-9.31461 0.580332,-27.94359 0.58034,12.10885 0.58033,22.04432 h 0.58034 l 0.58033,-7.76209 0.58033,9.62516 0.58034,7.14099 0.58033,-27.94359 0.58034,3.41534 0.58033,-4.34675 0.58034,4.34675 0.58033,6.20982 0.58033,-4.6573 0.58034,9.93547 0.58033,-2.48393 0.58034,-8.69351 0.58033,33.53231 0.58034,-1.24196 0.58033,6.52013 0.58034,-2.48393 0.58033,18.31867 0.58034,12.72972 0.58033,38.50016 0.58033,-0.93165 1.16067,68.61713 0.58034,-20.18149 0.58033,36.6371 0.58034,-22.66543 0.58033,-0.31055 0.58033,-32.2901 0.58034,17.07646 0.58033,-36.94741 0.58034,-27.32273 0.58033,4.96786 0.58034,-6.52014 0.58033,14.28223 0.58034,-4.6573 0.58033,21.42346 0.58033,11.7983 0.58034,-5.27817 0.58033,-23.28629 0.58034,-10.24602 0.58033,22.35487 0.58034,7.45155 0.58033,33.84286 0.58033,7.14099 0.58034,3.10479 0.58033,-22.66518 0.58034,-13.35082 0.58033,-28.25414 0.58034,3.10479 0.58033,13.0405 1.16067,2.48369 0.58033,-22.97573 0.58034,-11.17744 0.58033,-4.6573 0.58034,-21.11291 0.58033,-30.11674 0.58034,-16.14529 0.58033,21.73401 0.58033,5.58872 0.58034,-10.86712 0.58033,-31.04838 0.58034,15.21387 0.58033,5.27817 0.58034,6.83068 0.58033,-14.90332 0.58034,-28.25391 1.16066,-14.90333 1.16067,66.13297 0.58034,5.58872 0.58033,-5.89903 0.58034,23.28629 0.58033,40.05244 0.58033,2.17337 0.58034,-12.4194 0.58033,-1.86282 0.58034,14.90309 0.58033,-48.12509 0.58034,-11.48775 0.58033,-0.31055 0.58034,26.39108 0.58033,-31.3587 0.58033,-4.03644 0.58034,-16.14505 0.58033,10.24602 0.58034,-0.31055 0.58033,-4.96786 0.58034,5.89927 0.58033,-21.73377 0.58033,-8.07265 0.58034,1.55228 0.58033,7.45178 0.58034,34.15318 0.58033,-5.27817 0.58034,-2.17338 0.58033,8.69351 0.58034,-21.11291 1.16066,47.19344 0.58034,-6.20958 0.58033,5.89926 0.58034,17.69757 0.58033,-18.00812 0.58034,9.93548 0.58033,-18.00812 0.58034,25.77021 0.58033,-6.83068 1.16067,31.66948 1.16067,11.48775 0.58033,-21.73377 0.58034,8.38296 0.58033,-14.90309 0.58033,3.72565 0.58034,-22.97573 0.58033,8.38296 0.58034,6.52036 0.58033,18.00789 0.58034,-5.89904 0.58033,3.72566 0.58034,13.66136 0.58033,0.93142 0.58033,-4.03621 0.58034,-8.38319 0.58033,-12.41917 0.58034,4.03621 0.58033,-31.9798 0.58034,5.89903 0.58033,3.72589 0.58034,7.7621 0.58033,4.6573 0.58033,-15.83474 0.58034,-22.04432 0.58033,-28.56445 0.58034,-47.19368 0.58033,37.87907 1.16067,33.53231 0.58033,15.52419 0.58034,-4.96786 0.58033,-15.52419 0.58034,11.79854 0.58033,18.00812 0.58034,-5.58872 0.58033,-10.86713 0.58034,4.03645 0.58033,-17.07671 0.58033,-8.38296 0.58034,1.86283 0.58033,11.17744 0.58034,-5.89927 0.58033,-27.01194 0.58034,9.62492 0.58033,31.97979 0.58033,12.10886 0.58034,-6.52014 0.58033,-2.48393 0.58034,8.69351 0.58033,-7.45154 0.58034,-4.34676 0.58033,14.28223 0.58034,-4.96762 0.58033,-11.17743 0.58033,8.69351 0.58034,-20.1815 0.58033,1.24196 0.58034,-5.58871 0.58033,-15.83475 0.58034,0.93142 0.58033,-2.48369 0.58034,-25.77022 0.58033,13.66137 0.58033,5.27817 0.58034,13.04026 0.58033,-3.41534 0.58034,6.20982 0.58033,40.0522 0.58034,22.66542 0.58033,-6.52013 0.58033,1.55252 0.58034,27.01194 0.58033,-15.52419 0.58034,-10.24603 0.58033,-0.62086 0.58034,7.14123 0.58033,24.52802 0.58034,-0.31032 0.58033,37.87907 0.58033,-5.58872 0.58034,9.62492 0.58033,-8.69351 0.58034,-11.17743 0.58033,10.55633 0.58034,13.97192 0.58033,5.89903 0.58034,0.6211 0.58033,-20.49205 0.58033,18.00812 0.58034,7.14123 0.58033,-8.38319 1.16067,15.21364 0.58034,4.6573 0.58033,-11.48775 0.58034,5.89903 0.58033,-73.58451 0.58033,22.66519 0.58034,9.62516 0.58033,-5.89927 0.58034,-34.77428 0.58033,18.31867 0.58034,-11.48798 0.58033,0.93141 0.58033,19.25008 0.58034,-10.86688 0.58033,43.46754 0.58034,-17.69757 1.16067,-14.28222 0.58033,3.10479 0.58034,-11.1772 0.58033,-1.86307 1.16067,10.86689 0.58033,11.17744 0.58034,7.45178 0.58033,16.4556 0.58034,-6.83068 0.58033,-29.80642 0.58033,9.93547 0.58034,5.89927 0.58033,7.45155 0.58034,-1.24196 0.58033,4.96761 0.58034,-4.0362 0.58033,4.96785 0.58034,-4.03644 0.58033,3.10479 0.58033,-0.93141 0.58034,15.83474 0.58033,-6.52013 h 0.58034 l 1.16067,-26.39108 0.58033,34.15317 0.58033,-18.93953 0.58034,-4.0362 0.58033,-49.0565 0.58034,-25.45967 0.58033,17.38702 1.16067,-29.80642 0.58034,-5.58872 0.58033,-10.24602 0.58033,13.0405 0.58034,27.63304 0.58033,-2.48392 0.58034,4.96761 0.58033,-10.86688 0.58034,24.2177 0.58033,3.10503 0.58034,-0.62111 0.58033,-5.27816 0.58033,26.70162 0.58034,1.86283 0.58033,4.34676 0.58034,-4.34676 0.58033,-19.87094 1.16067,-15.5242 0.58033,4.34676 0.58034,-1.24196 0.58033,-34.15318 0.58034,3.10479 0.58033,13.97192 0.58034,0.31031 0.58033,-22.97574 0.58034,-35.08458 0.58033,7.14099 0.58033,9.31461 1.16067,23.59684 0.58034,2.79424 0.58033,-6.20958 0.58034,-24.2177 0.58033,-9.93571 0.58034,-7.7621 0.58033,0.93165 0.58033,-3.41534 0.58034,3.72566 0.58033,-6.20959 0.58034,1.55252 0.58033,-7.45178 0.58034,-9.00406 0.58033,0.31055 0.58033,24.2177 0.58034,4.96785 1.16067,-12.72995 0.58033,-15.8345 0.58034,15.8345 0.58033,3.41534 0.58034,16.14529 1.16067,-17.0767 0.58033,-5.58872 1.16067,-40.6733 0.58033,-13.97192 0.58034,9.62516 0.58033,7.45155 0.58033,18.62898 0.58034,3.41534 0.58033,8.07264 0.58034,4.34676 0.58033,-14.59278 0.58034,9.93547 0.58033,14.59278 0.58034,-1.24196 0.58033,-0.62086 0.58033,16.4556 0.58034,6.52013 0.58033,0.62087 0.58034,-2.48369 0.58033,10.55633 1.16067,-12.4194 1.16067,22.35487 0.58033,-13.35081 0.58034,3.10479 0.58033,-47.50399 0.58034,-4.0362 0.58033,-2.17338 0.58034,-7.45178 1.16066,31.35893 0.58034,-7.14099 0.58033,17.38702 0.58034,-9.93548 0.58033,-1.24196 0.58034,-11.17744 0.58033,-18.62898 0.58034,12.72971 0.58033,-9.31437 0.58033,-5.89927 0.58034,59.61284 0.58033,33.84286 0.58034,-9.00406 0.58033,-14.90333 0.58034,11.48799 0.58033,-15.21364 0.58034,16.14505 0.58033,-3.41534 0.58033,8.3832 0.58034,-0.93142 0.58033,8.38296 0.58034,-4.0362 0.58033,-6.83068 0.58034,-4.34676 0.58033,15.52419 0.58033,-0.6211 0.58034,15.21388 0.58033,4.65707 0.58034,-6.20958 0.58033,14.59278 0.58034,-5.58872 1.16067,-7.45155 0.58033,-9.62516 0.58033,-37.56851 0.58034,5.58872 0.58033,-20.1815 0.58034,15.52419 0.58033,6.20982 0.58034,13.35081 0.58033,6.52014 0.58034,-6.83069 0.58033,-16.4556 0.58033,6.52013 0.58034,-4.34675 0.58033,-2.79448 0.58034,-26.08053 0.58033,-2.17338 0.58034,-17.38701 0.58033,10.86688 0.58033,0.31031 0.58034,0.62111 0.58033,7.76209 0.58034,-0.6211 0.58033,24.8388 0.58034,0.31055 0.58033,14.59278 0.58034,-0.93165 0.58033,-11.48775 0.58033,7.14099 0.58034,-32.91121 0.58033,4.34676 0.58034,2.17338 0.58033,9.62492 0.58034,-7.45155 0.58033,16.45561 0.58033,-9.31437 0.58034,-1.24197 0.58033,25.45967 0.58034,-8.3832 0.58033,5.58872 0.58034,-11.1772 0.58033,-6.52037 0.58034,0.93165 0.58033,-5.2784 0.58034,4.03644 0.58033,-0.31055 0.58033,3.41534 0.58034,-2.48393 0.58033,9.00406 0.58034,11.48799 0.58033,0.31031 0.58034,16.45584 0.58033,-4.34699 0.58033,36.6371 0.58034,8.3832 0.58033,-13.97192 0.58034,15.52419 0.58033,-4.0362 0.58034,0.31055 0.58033,-0.93141 1.16067,25.76997 0.58033,-0.93141 0.58034,1.55251 0.58033,-2.79447 0.58034,8.07264 0.58033,-16.76615 0.58034,3.10479 0.58033,-23.28629 0.58034,-9.31437 0.58033,-7.45155 0.58033,-2.79448 0.58034,22.04433 0.58033,2.48393 0.58034,19.87094 0.58033,9.00406 0.58034,40.98386 0.58033,2.48392 0.58033,6.83069 0.58034,14.90309 0.58033,9.93547 0.58034,-4.96762 0.58033,-0.31055 0.58034,20.49181 0.58033,-6.52013 0.58033,-4.96762 0.58034,-12.4194 0.58033,17.69757 0.58034,-14.28223 0.58033,-8.38319 0.58034,-19.5604 0.58033,10.86689 0.58034,-8.07241 0.58033,26.08053 0.58033,15.52419 0.58034,-18.93954 0.58033,2.17338 1.16067,65.20156 0.58034,-5.58872 0.58033,5.89927 0.58033,4.6573 0.58034,-8.38319 0.58033,2.17337 0.58034,-2.48369 0.58033,0.31032 0.58034,7.45178 0.58033,-18.00812 0.58034,-9.00406 0.58033,25.45966 0.58033,-15.83474 0.58034,-36.6371 0.58033,21.73401 0.58034,-9.00406 0.58033,2.48393 0.58034,-7.14123 0.58033,-13.35082 0.58034,-5.27816 0.58033,-26.39108 0.58033,18.62898 0.58034,6.83068 0.58033,-12.72995 0.58034,-18.00788 0.58033,5.89903 0.58034,-9.93547 0.58033,10.86688 0.58034,4.65731 0.58033,-3.10479 0.58033,-28.56446 0.58034,4.03621 0.58033,6.52013 0.58034,0.6211 0.58033,1.24197 0.58034,10.86688 0.58033,0.62086 0.58034,11.48799 1.16066,9.62492 0.58034,9.00406 0.58033,-2.17337 0.58034,-22.97574 1.16067,28.875 0.58033,-1.24196 0.58033,-8.69351 1.16067,2.48369 0.58034,-0.31031 0.58033,20.49181 0.58034,13.04026 0.58033,-20.49181 0.58033,3.10479 0.58034,5.27817 0.58033,8.07265 0.58034,-6.83069 0.58033,-18.62898 0.58034,4.03621 0.58033,9.93547 0.58034,-29.80642 0.58033,-14.59278 0.58033,0.93165 0.58034,3.41535 0.58033,-18.62922 0.58034,-4.03621 0.58033,2.48393 0.58034,-4.03644 0.58033,-14.28223 0.58034,16.76616 0.58033,9.00406 0.58033,12.72995 0.58034,-1.86307 0.58033,5.89927 h 0.58034 l 0.58033,0.62086 0.58034,3.41534 0.58033,15.83475 0.58034,-4.96786 0.58033,-9.62492 0.58033,2.17338 1.16067,-14.9031 0.58034,-24.8388 0.58033,7.45155 0.58034,1.24196 0.58033,6.20982 0.58033,-27.63328 0.58034,-8.38296 1.16067,8.07265 0.58033,-0.93141 0.58034,2.79424 0.58033,-4.96762 0.58033,7.141 0.58034,-13.97168 0.58033,-3.41534 1.16067,29.18531 0.58034,2.48393 0.58033,-1.55227 1.16067,-22.04433 1.16067,-46.26226 0.58033,14.28223 0.58034,-22.66519 0.58033,-5.27817 0.58034,11.48775 0.58033,-3.41534 0.58034,0.31055 0.58033,4.65731 0.58033,-3.72589 0.58034,-11.17744 0.58033,8.69351 0.58034,-14.90309 0.58033,2.48393 0.58034,-4.96786 0.58033,3.41534 0.58033,5.27817 0.58034,10.86689 0.58033,-4.03621 0.58034,-4.96762 0.58033,-1.24196 0.58034,15.21364 0.58033,-8.38296 0.58034,11.48775 0.58033,6.83068 0.58033,-5.89926 0.58034,-0.62087 0.58033,-7.45154 0.58034,4.0362 0.58033,-29.80642 1.16067,-26.08076 0.58034,0.93165 0.58033,16.76592 0.58033,2.79447 0.58034,-14.59277 0.58033,5.89927 0.58034,1.24196 0.58033,-9.62516 0.58034,1.55251 0.58033,-1.86282 0.58033,-19.25009 0.58034,0.62087 0.58033,-14.59254 0.58034,4.34675 0.58033,-16.45584 0.58034,-10.24579 0.58033,1.24197 0.58034,2.17337 0.58033,-11.79853 0.58034,5.89927 0.58033,-18.62899 0.58033,-12.4194 0.58034,5.27817 0.58033,-6.20958 0.58034,-0.6211 0.58033,22.66542 0.58033,-3.41534 0.58034,6.52013 1.16067,-7.45154 0.58033,-10.24602 1.16067,24.2177 0.58034,-11.17744 0.58033,4.03644 0.58033,-5.89927 0.58034,-10.24602 0.58033,13.97191 0.58034,-12.4194 0.58033,4.03621 1.16067,-33.22176 0.58034,4.34675 0.58033,16.45561 0.58034,-6.52013 0.58033,4.34675 0.58033,-15.52419 0.58034,-0.62087 0.58033,-23.59683 0.58034,-6.20958 0.58033,16.4556 0.58033,1.55252 0.58034,18.93929 0.58033,-12.41916 0.58034,-7.7621 0.58033,5.58872 0.58034,-8.07265 0.58033,22.35488 0.58034,-7.7621 0.58033,-2.79448 0.58033,14.90333 0.58034,9.93547 0.58033,12.10886 0.58034,-8.3832 0.58033,-0.31031 0.58034,14.90309 0.58033,0.31055 0.58034,-3.41534 0.58033,15.52419 0.58033,-4.96762 0.58034,-1.86307 0.58033,-13.97167 0.58034,-10.24603 0.58033,4.96786 0.58034,-0.93165 1.16067,12.4194 0.58033,-4.0362 0.58033,-2.79448 0.58034,13.35081 0.58033,7.45178 0.58034,0.62087 0.58033,-7.7621 0.58034,27.94359 0.58033,9.62493 0.58033,-13.35082 0.58034,1.86307 0.58033,8.38295 0.58034,-4.0362 0.58033,7.7621 0.58034,-6.83069 0.58033,5.89927 0.58034,-1.24196 0.58033,-13.35082 0.58033,-1.55251 0.58034,3.10479 0.58033,-20.49181 0.58034,-0.6211 0.58033,3.72589 0.58034,-8.38296 0.58033,13.04027 0.58033,-4.03644 0.58034,-22.66519 0.58033,-14.28223 0.58034,4.34676 0.58033,11.17743 h 0.58034 l 0.58033,-7.76209 0.58034,-3.41534 0.58033,9.00406 0.58033,5.89903 1.16067,13.0405 0.58034,3.10479 0.58033,-0.93141 0.58034,7.14099 0.58033,-20.80236 0.58033,1.86283 0.58034,13.66136 1.16067,-14.28222 0.58033,-3.7259 0.58034,-2.17337 0.58033,2.17337 0.58034,-2.79424 0.58033,-7.14123 1.16067,-28.2539 0.58033,-8.3832 0.58034,9.62516 0.58033,-9.62516 0.58034,3.10479 0.58033,11.79854 0.58034,6.20958 0.58033,-6.20958 0.58034,-14.90333 0.58033,-27.32249 0.58033,-18.00812 0.58034,4.65731 0.58033,-1.24197 0.58034,2.17338 0.58033,-5.27817 0.58033,-8.69351 0.58034,-28.254139 0.58033,5.588718 0.58034,-9.935473 0.58033,7.451545 0.58034,-3.725654 0.58033,-1.863064 0.58034,-14.282227 0.58033,16.455604 0.58034,10.867124 0.58033,1.241727 0.58033,20.802599 0.58034,-0.93142 0.58033,6.52014 0.58034,-7.14124 1.741,-50.298462 0.58033,15.834742 0.58034,19.25008 0.58033,11.17744 0.58034,-10.24602 0.58033,4.0362 0.58034,-1.86283 0.58033,16.76616 0.58033,7.76209 0.58034,-9.00406 0.58033,-11.7983 0.58034,4.34676 0.58033,-14.28223 0.58034,0.62086 0.58033,14.90333 0.58034,-0.93165 0.58033,-5.89903 0.58034,-7.45154 0.58033,1.24172 0.58033,13.66137 0.58034,2.79447 0.58033,-10.24602 0.58034,14.59278 0.58033,-18.31867 0.58033,2.48393 1.16067,-25.770218 0.58034,10.556573 0.58033,21.423225 0.58034,2.79448 0.58033,-3.10479 0.58034,4.65706 0.58033,-1.86282 0.58033,9.93547 0.58034,-10.86689 1.16067,-16.145289 0.58033,-0.620864 0.58034,5.588723 0.58033,1.55251 0.58034,-11.487987 1.16067,5.899267 1.16066,21.73377 0.58034,19.25009 0.58033,-5.27841 1.16067,24.52825 0.58033,-0.62086 0.58034,9.31437 0.58033,18.93953 0.58034,1.86307 0.58033,-3.10479 1.16067,10.55633 0.58034,11.48799 0.58033,-2.48393 0.58034,-12.10885 0.58033,-3.41534 0.58033,1.55228 0.58034,19.56063 0.58033,5.27817 0.58034,2.48393 0.58033,5.27816 0.58034,1.24197 0.58033,-2.17338 0.58033,12.4194 0.58034,-7.14123 0.58033,12.72995 0.58034,19.87095 0.58033,-21.11292 0.58034,-4.96785 0.58033,6.20982 0.58033,-5.27841 0.58034,-4.0362 1.16067,-15.21364 0.58033,4.6573 0.58034,0.93142 0.58033,6.83068 0.58034,-2.79448 0.58033,32.91121 0.58033,0.6211 0.58034,-1.24196 0.58033,10.55633 0.58034,-0.93141 0.58033,-5.89903 0.58034,-10.86713 0.58033,-7.45154 0.58034,12.4194 0.58033,18.93953 0.58033,3.10479 0.58034,-23.59683 0.58033,7.45178 0.58034,-8.69375 0.58033,-3.72565 0.58034,-13.35082 0.58033,1.24197 0.58033,0.93141 0.58034,18.93953 0.58033,2.79424 0.58034,-1.86282 0.58033,-7.45155 0.58034,14.28223 1.16067,6.20958 0.58033,-22.04432 0.58033,6.52013 0.58034,-1.86283 0.58033,-7.76209 0.58034,12.10885 0.58033,-2.17338 0.58034,-9.93547 1.16066,8.07264 0.58034,17.07647 0.58033,-0.93141 0.58034,6.83068 1.16067,-8.07265 0.58033,12.4194 0.58034,26.70163 0.58033,0.93142 0.58033,10.55657 0.58034,-0.93165 0.58033,-1.55228 0.58034,-17.0767 0.58033,-6.20958 0.58034,-19.87095 0.58033,-3.41534 0.58034,14.59278 0.58033,-14.59278 0.58034,-11.48799 0.58033,-1.86283 0.58033,-3.72589 0.58034,3.72589 0.58033,13.04027 0.58034,8.69351 0.58033,-9.00406 0.58033,-3.41534 0.58034,10.86712 0.58033,-6.83068 0.58034,-2.79448 1.16067,-16.14505 0.58033,13.66136 0.58034,-14.59278 0.58033,3.41534 0.58033,-2.17337 0.58034,-19.87095 0.58033,9.62492 0.58034,1.24197 0.58033,-4.03644 0.58034,1.86306 0.58033,25.14911 0.58034,5.89927 0.58033,3.41534 1.16067,14.28223 0.58033,-0.31055 0.58034,-4.0362 0.58033,4.65706 0.58034,-2.79424 0.58033,-5.27817 0.58034,-15.21387 0.58033,6.20981 0.58033,-4.6573 0.58034,-0.62086 0.58033,16.4556 0.58034,9.93548 0.58033,-5.89927 0.58034,9.31461 0.58033,-1.55252 0.58033,14.59278 0.58034,7.76209 0.58033,-9.93547 0.58034,6.83068 0.58033,13.35082 0.58034,3.72565 0.58033,-26.39107 0.58033,8.07264 0.58034,-5.89927 0.58033,-0.93141 0.58034,-9.93547 0.58033,19.87094 0.58034,8.3832 0.58033,19.56039 0.58034,-7.45154 0.58033,-15.52419 0.58034,4.0362 0.58033,-14.28223 0.58033,-8.69351 0.58034,19.24985 0.58033,-3.10479 0.58034,6.52013 0.58033,4.6573 0.58034,9.31461 0.58033,-18.00811 0.58033,-0.31055 0.58034,15.21364 0.58033,-7.141 0.58034,-2.17338 0.58033,-4.96785 0.58034,-9.31437 0.58033,22.04432 0.58033,5.27817 0.58034,-10.86689 0.58033,0.62087 0.58034,11.79853 0.58033,-10.55657 0.58034,1.24196 0.58033,-3.10479 0.58034,-23.59683 0.58033,21.1129 0.58034,-12.72971 0.58033,15.52419 0.58033,-17.69757 0.58034,-2.79447 0.58033,-6.83069 0.58034,20.1815 0.58033,-15.83474 0.58034,-3.72566 0.58033,-14.90332 0.58033,5.89927 0.58034,-21.11292 0.58033,9.93548 0.58034,4.0362 0.58033,-2.48393 0.58034,11.79854 0.58033,2.79424 0.58034,0.31055 0.58033,8.38296 0.58033,-1.24173 0.58034,-5.58871 0.58033,14.90309 0.58034,-25.14912 0.58033,-1.24196 0.58034,2.17338 0.58033,-14.90333 0.58034,7.45178 h 0.58033 l 1.741,26.08053 0.58034,2.79448 0.58033,4.0362 0.58034,13.04027 0.58033,-10.86689 0.58033,13.04026 0.58034,-4.65707 0.58033,-1.86306 0.58034,-12.4194 0.58033,-2.17338 0.58034,4.96786 1.16067,-6.20958 0.58033,-12.72995 0.58033,4.6573 0.58034,0.31055 0.58033,11.48775 1.16067,9.93547 0.58034,0.6211 0.58033,24.83857 0.58033,-9.31438 0.58034,-4.6573 0.58033,-8.69351 0.58034,-12.10885 0.58033,7.45155 0.58034,-5.89927 0.58033,-2.48393 0.58034,-4.34675 0.58033,-19.24985 0.58033,22.97574 0.58034,4.6573 0.58033,-2.48393 0.58034,5.27817 0.58033,0.93142 0.58034,13.35081 0.58033,2.48393 0.58033,-0.93142 0.58034,3.41534 0.58033,-8.38319 0.58034,6.83068 0.58033,2.79448 0.58034,-10.86689 0.58033,-1.24196 0.58034,-1.86307 0.58033,7.14124 0.58034,-6.52014 0.58033,-0.93141 0.58033,3.10479 0.58034,-0.93141 0.58033,14.28223 0.58034,-5.89927 0.58033,9.00406 0.58034,16.4556 0.58033,3.10479 0.58033,-5.89903 0.58034,-4.6573 0.58033,-11.7983 0.58034,6.52013 0.58033,4.34675 0.58034,-9.62516 h 0.58033 l 0.58033,3.41534 0.58034,-0.31031 0.58033,-7.7621 0.58034,-1.24196 0.58033,-0.31055 0.58034,6.52013 0.58033,1.24197 0.58034,8.38296 0.58033,4.96785 0.58033,-2.17338 0.58034,4.03621 0.58033,1.55251 1.16067,-15.52419 0.58034,10.86689 0.58033,5.58871 h 0.58034 l 0.58033,-12.10885 0.58033,-18.93953 0.58034,-2.17338 0.58033,9.31461 0.58034,-10.55657 0.58033,-13.04026 0.58034,4.6573 0.58033,-2.17338 0.58034,9.62493 0.58033,0.31055 0.58033,17.38702 0.58034,-0.31055 0.58033,2.48392 1.16067,-31.35893 0.58033,-12.72971 0.58034,-7.45155 0.58033,5.58872 0.58034,1.55228 0.58033,-0.62087 0.58034,-1.86306 0.58033,22.04432 0.58034,-3.4151 0.58033,1.24173 0.58034,14.90332 1.16066,7.45155 0.58034,-12.10885 0.58033,-1.55228 0.58034,-7.45178 0.58033,3.72589 0.58034,14.59278 0.58033,-5.58872 0.58033,-13.35081 0.58034,11.17743 0.58033,3.41534 0.58034,13.97168 0.58033,0.6211 0.58034,2.79424 0.58033,5.89927 0.58034,0.93141 0.58033,0.31055 0.58033,14.59254 0.58034,-4.0362 0.58033,-9.00406 0.58034,-18.62898 0.58033,4.0362 0.58034,-2.79424 0.58033,2.48393 1.16067,-7.45178 0.58033,13.35081 1.16067,10.24602 h 0.58034 l 0.58033,6.52014 0.58034,-4.96762 0.58033,3.41534 0.58033,-4.03644 0.58034,-16.45561 0.58033,13.66137 0.58034,-2.48393 0.58033,6.52013 0.58034,9.31461 0.58033,12.72971 0.58033,0.93142 0.58034,-15.52419 0.58033,-1.24173 0.58034,-0.6211 0.58033,-3.41534 0.58034,1.55251 0.58033,9.93548 0.58034,-10.55658 0.58033,-1.55227 0.58033,12.10885 0.58034,-12.10885 0.58033,10.55633 0.58034,-10.24602 0.58033,7.45178 0.58034,2.79424 0.58033,-8.07264 0.58034,21.73401 0.58033,5.27817 0.58033,-3.1048 0.58034,8.38296 0.58033,-7.76209 0.58034,-2.79424 0.58033,-5.58872 0.58034,-1.55252 1.16066,10.24603 0.58034,-0.62087 1.16067,-25.45966 0.58033,4.65707 0.58034,-4.96762 0.58033,-8.69351 1.16067,-22.66542 0.58033,1.55251 0.58034,6.20958 0.58033,-1.86282 0.58034,4.96761 0.58033,6.20982 1.16067,-4.34675 0.58033,-1.24197 0.58034,-9.31461 0.58033,-3.41534 0.58034,8.3832 0.58033,14.59278 0.58034,-0.93165 1.16067,12.4194 0.58033,-4.65731 0.58034,3.41534 0.58033,1.86307 0.58033,-6.52014 0.58034,-4.96785 0.58033,-6.52013 1.74101,6.20958 0.58033,8.69351 0.58033,1.55251 0.58034,-2.17337 0.58033,4.96785 0.58034,-4.34699 0.58033,-12.72971 0.58034,-3.7259 0.58033,-2.79424 0.58033,-7.45154 0.58034,9.00382 0.58033,-1.86283 1.16067,-14.90309 0.58034,7.45155 0.58033,-7.14123 0.58034,-3.1048 0.58033,4.34676 0.58033,6.20982 0.58034,0.31031 0.58033,9.00406 0.58034,-1.55228 0.58033,-0.31055 0.58034,-1.86306 0.58033,-20.80236 0.58034,-5.58872 0.58033,-10.86688 v 0"
       style="fill:none;stroke:#1f77b4;stroke-width:1.5;stroke-linecap:round;stroke-linejoin:round;stroke-miterlimit:10;stroke-dasharray:none;stroke-opacity:1"
       transform="matrix(1.3333333,0,0,-1.3333333,0,768)"
       clip-path="url(#clipPath30)" />
    <path
       id="path31"
       d="m 87.855,68.380568 h 23.21338 l 0.58033,456.411362 h 7.54435 l 0.58033,-456.411362 h 0.58034 l 0.58033,456.411362 h 1.16067 l 0.58033,-456.411362 h 1.16067 l 0.58034,456.411362 h 0.58033 l 0.58034,-456.411362 h 5.223 l 0.58034,456.411362 h 1.741 l 0.58034,-456.411362 h 12.76735 l 0.58034,456.411362 h 2.32134 l 0.58033,-456.411362 0.58033,456.411362 h 4.64268 l 0.58033,-456.411362 h 2.32134 l 0.58034,456.411362 0.58033,-456.411362 h 2.90167 l 0.58034,456.411362 h 7.54434 l 0.58034,-456.411362 h 4.06234 l 0.58033,456.411362 h 2.90168 L 178.9675,68.380568 h 7.54435 l 0.58033,456.411362 0.58034,-456.411362 0.58033,456.411362 h 1.16067 l 0.58033,-456.411362 h 4.06234 l 0.58034,456.411362 h 2.32134 L 197.5382,68.380568 h 1.16067 l 0.58033,456.411362 0.58034,-456.411362 h 7.54434 l 0.58034,456.411362 h 13.92803 l 0.58033,-456.411362 0.58033,456.411362 h 2.32134 l 0.58034,-456.411362 h 4.06234 l 0.58033,456.411362 0.58034,-456.411362 h 0.58033 l 0.58033,456.411362 h 1.16067 l 0.58034,-456.411362 h 2.90167 l 0.58033,456.411362 h 2.90168 l 0.58033,-456.411362 h 0.58033 l 0.58034,456.411362 h 2.32134 l 0.58033,-456.411362 h 9.28535 l 0.58034,456.411362 h 0.58033 l 0.58033,-456.411362 h 5.22301 l 0.58034,456.411362 h 1.741 l 0.58034,-456.411362 h 13.92802 l 0.58034,456.411362 h 2.32133 l 0.58034,-456.411362 h 6.96401 l 0.58033,456.411362 h 9.86569 l 0.58033,-456.411362 h 4.06234 l 0.58034,456.411362 0.58033,-456.411362 h 4.64268 l 0.58033,456.411362 h 8.70502 l 0.58033,-456.411362 h 13.92803 l 0.58033,456.411362 h 1.74101 l 0.58033,-456.411362 h 0.58033 l 0.58034,456.411362 0.58033,-456.411362 h 1.16067 l 0.58034,456.411362 h 4.06234 L 344.3628,68.380568 h 1.16067 l 0.58034,456.411362 h 12.76735 L 359.4515,68.380568 h 4.64267 l 0.58034,456.411362 h 4.06234 l 0.58033,-456.411362 h 3.48201 l 0.58033,456.411362 h 6.96401 l 0.58034,-456.411362 h 0.58033 l 0.58034,456.411362 h 2.90167 l 0.58033,-456.411362 h 12.76736 l 0.58034,456.411362 h 8.70501 l 0.58034,-456.411362 0.58033,456.411362 h 0.58033 l 0.58034,-456.411362 h 6.38368 l 0.58033,456.411362 0.58034,-456.411362 h 3.482 l 0.58034,456.411362 0.58033,-456.411362 h 0.58034 l 0.58033,456.411362 0.58033,-456.411362 h 6.96402 l 0.58033,456.411362 h 1.16067 l 0.58034,-456.411362 h 12.76735 l 0.58034,456.411362 0.58033,-456.411362 h 2.32134 L 449.98366,524.79193 450.564,68.380568 h 18.5707 l 0.58033,456.411362 h 2.90167 l 0.58034,-456.411362 h 11.60669 l 0.58033,456.411362 h 0.58033 l 0.58034,-456.411362 h 0.58033 l 0.58034,456.411362 h 6.38368 l 0.58033,-456.411362 h 3.48201 l 0.58033,456.411362 h 7.54435 l 0.58033,-456.411362 0.58034,456.411362 h 1.16067 l 0.58033,-456.411362 h 6.96401 l 0.58034,456.411362 0.58033,-456.411362 h 3.48201 l 0.58033,456.411362 h 2.90167 L 524.8468,68.380568 h 15.66903 l 0.58033,456.411362 0.58034,-456.411362 0.58033,456.411362 h 3.48201 l 0.58033,-456.411362 h 1.741 l 0.58034,456.411362 h 5.22301 l 0.58033,-456.411362 h 1.74101 l 0.58033,456.411362 h 1.741 l 0.58034,-456.411362 h 5.22301 l 0.58033,456.411362 h 1.16067 l 0.58034,-456.411362 h 2.90167 l 0.58033,456.411362 h 17.99037 l 0.58033,-456.411362 h 2.90167 l 0.58034,456.411362 h 2.32134 l 0.58033,-456.411362 h 9.28535 l 0.58034,456.411362 h 5.223 l 0.58034,-456.411362 h 0.58033 l 0.58034,456.411362 h 12.18702 l 0.58033,-456.411362 h 2.90168 l 0.58033,456.411362 0.58034,-456.411362 h 6.38367 l 0.58034,456.411362 h 5.22301 l 0.58033,-456.411362 h 1.74101 l 0.58033,456.411362 h 13.92803 l 0.58033,-456.411362 h 5.80334 l 0.58034,456.411362 h 5.22301 l 0.58033,-456.411362 h 9.28535 l 0.58034,456.411362 h 1.741 l 0.58034,-456.411362 h 3.482 l 0.58034,456.411362 h 7.54434 l 0.58034,-456.411362 h 1.16067 l 0.58033,456.411362 h 2.32134 l 0.58033,-456.411362 h 1.16067 l 0.58034,456.411362 0.58033,-456.411362 h 13.34769 l 0.58034,456.411362 h 5.80334 l 0.58033,-456.411362 0.58034,456.411362 h 1.741 l 0.58034,-456.411362 h 0.58033 l 0.58033,456.411362 h 0.58034 l 0.58033,-456.411362 0.58034,456.411362 h 3.482 l 0.58034,-456.411362 h 19.73137 l 0.58033,456.411362 h 6.38368 l 0.58033,-456.411362 0.58034,456.411362 h 0.58033 L 761.0429,68.380568 h 1.741 l 0.58034,456.411362 h 2.32133 l 0.58034,-456.411362 h 1.16067 l 0.58033,456.411362 h 5.80334 l 0.58034,-456.411362 h 4.64267 l 0.58034,456.411362 h 6.96401 l 0.58034,-456.411362 h 7.54434 l 0.58034,456.411362 h 0.58033 L 796.4433,68.380568 h 4.06234 l 0.58033,456.411362 h 0.58034 l 0.58033,-456.411362 h 2.90167 l 0.58034,456.411362 h 2.90167 l 0.58033,-456.411362 h 5.22301 L 815.014,524.79193 h 0.58033 l 0.58034,-456.411362 h 0.58033 v 0"
       style="fill:none;stroke:#ff7f0e;stroke-width:1.5;stroke-linecap:butt;stroke-linejoin:round;stroke-miterlimit:10;stroke-dasharray:6, 2.25;stroke-dashoffset:0;stroke-opacity:1"
       transform="matrix(1.3333333,0,0,-1.3333333,0,768)"
       clip-path="url(#clipPath32)" />
    <path
       id="path33"
       d="M 51.41,45.56 V 547.6125"
       style="fill:none;stroke:#cccccc;stroke-width:0.8;stroke-linecap:square;stroke-linejoin:miter;stroke-miterlimit:10;stroke-dasharray:none;stroke-opacity:1"
       transform="matrix(1.3333333,0,0,-1.3333333,0,768)" />
    <path
       id="path34"
       d="M 853.2,45.56 V 547.6125"
       style="fill:none;stroke:#cccccc;stroke-width:0.8;stroke-linecap:square;stroke-linejoin:miter;stroke-miterlimit:10;stroke-dasharray:none;stroke-opacity:1"
       transform="matrix(1.3333333,0,0,-1.3333333,0,768)" />
    <path
       id="path35"
       d="M 51.41,45.56 H 853.2"
       style="fill:none;stroke:#cccccc;stroke-width:0.8;stroke-linecap:square;stroke-linejoin:miter;stroke-miterlimit:10;stroke-dasharray:none;stroke-opacity:1"
       transform="matrix(1.3333333,0,0,-1.3333333,0,768)" />
    <path
       id="path36"
       d="M 51.41,547.6125 H 853.2"
       style="fill:none;stroke:#cccccc;stroke-width:0.8;stroke-linecap:square;stroke-linejoin:miter;stroke-miterlimit:10;stroke-dasharray:none;stroke-opacity:1"
       transform="matrix(1.3333333,0,0,-1.3333333,0,768)" />
    <text
       id="text36"
       xml:space="preserve"
       transform="matrix(1.3333333,0,0,1.3333333,424.21917,29.85)"><tspan
         id="tspan36"
         style="font-variant:normal;font-weight:normal;font-size:16px;font-family:Arial;writing-mode:lr-tb;fill:#262626;fill-opacity:1;fill-rule:nonzero;stroke:none"
         x="0"
         dx="0 -0.28125 0 0 0 0 0 0 0 0 0 0 0 0 0 0 0 0 0 0 0 0 0 0 0 0 0 0 0 0 0 0 -2.0625"
         y="0">Visualisation of Regime for DX-Y.NYB</tspan></text>
  </g>
</svg>
