<svg xmlns="http://www.w3.org/2000/svg" xmlns:xlink="http://www.w3.org/1999/xlink" contentStyleType="text/css" data-diagram-type="SEQUENCE" height="1122px" preserveAspectRatio="none" style="width:979px;height:1122px;background:#FFFFFF;" version="1.1" viewBox="0 0 979 1122" width="979px" zoomAndPan="magnify"><title>MATH60610A - Poject - Data Pipeline</title><defs/><g><text fill="#000000" font-family="sans-serif" font-size="25" font-weight="bold" lengthAdjust="spacing" textLength="490.918" x="245.6553" y="39.1699">MATH60610A - Poject - Data Pipeline</text><g><title>DataLoader</title><rect fill="#778899" height="164.2422" style="stroke:#181818;stroke-width:1;" width="10" x="308.7241" y="181.5527"/></g><g><title>DataProcessor</title><rect fill="#778899" height="264.1738" style="stroke:#181818;stroke-width:1;" width="10" x="583.0225" y="383.1055"/></g><g><title>HeatmapBuilder</title><rect fill="#778899" height="334.1738" style="stroke:#181818;stroke-width:1;" width="10" x="719.0811" y="684.5898"/></g><rect fill="none" height="891.832" style="stroke:#000000;stroke-width:1.5;" width="963.2285" x="10" y="134.9316"/><g><title>YFinance API</title><rect fill="#000000" fill-opacity="0.00000" height="925.832" width="8" x="65.3135" y="117.9316"/><line style="stroke:#181818;stroke-width:0.5;stroke-dasharray:5.0,5.0;" x1="69" x2="69" y1="117.9316" y2="1043.7637"/></g><g><title>Configuration</title><rect fill="#000000" fill-opacity="0.00000" height="925.832" width="8" x="183.5532" y="117.9316"/><line style="stroke:#181818;stroke-width:0.5;stroke-dasharray:5.0,5.0;" x1="186.627" x2="186.627" y1="117.9316" y2="1043.7637"/></g><g><title>DataLoader</title><rect fill="#000000" fill-opacity="0.00000" height="925.832" width="8" x="309.7241" y="117.9316"/><line style="stroke:#181818;stroke-width:0.5;stroke-dasharray:5.0,5.0;" x1="313.5273" x2="313.5273" y1="117.9316" y2="1043.7637"/></g><g><title>Local data</title><rect fill="#000000" fill-opacity="0.00000" height="925.832" width="8" x="441.8555" y="117.9316"/><line style="stroke:#181818;stroke-width:0.5;stroke-dasharray:5.0,5.0;" x1="445.1841" x2="445.1841" y1="117.9316" y2="1043.7637"/></g><g><title>DataProcessor</title><rect fill="#000000" fill-opacity="0.00000" height="925.832" width="8" x="584.0225" y="117.9316"/><line style="stroke:#181818;stroke-width:0.5;stroke-dasharray:5.0,5.0;" x1="587.0625" x2="587.0625" y1="117.9316" y2="1043.7637"/></g><g><title>HeatmapBuilder</title><rect fill="#000000" fill-opacity="0.00000" height="925.832" width="8" x="720.0811" y="117.9316"/><line style="stroke:#181818;stroke-width:0.5;stroke-dasharray:5.0,5.0;" x1="723.543" x2="723.543" y1="117.9316" y2="1043.7637"/></g><g><title>Logs</title><rect fill="#000000" fill-opacity="0.00000" height="925.832" width="8" x="933.1113" y="117.9316"/><line style="stroke:#181818;stroke-width:0.5;stroke-dasharray:5.0,5.0;" x1="936.9941" x2="936.9941" y1="117.9316" y2="1043.7637"/></g><g class="participant participant-head" data-participant="YFinance API"><text fill="#000000" font-family="sans-serif" font-size="14" font-weight="bold" lengthAdjust="spacing" textLength="92.627" x="20" y="114.9785">YFinance API</text><path d="M51.3135,65.4434 C51.3135,55.4434 69.3135,55.4434 69.3135,55.4434 C69.3135,55.4434 87.3135,55.4434 87.3135,65.4434 L87.3135,91.4434 C87.3135,101.4434 69.3135,101.4434 69.3135,101.4434 C69.3135,101.4434 51.3135,101.4434 51.3135,91.4434 L51.3135,65.4434" fill="#720E9E" style="stroke:#181818;stroke-width:1.5;"/><path d="M51.3135,65.4434 C51.3135,75.4434 69.3135,75.4434 69.3135,75.4434 C69.3135,75.4434 87.3135,75.4434 87.3135,65.4434" fill="none" style="stroke:#181818;stroke-width:1.5;"/></g><g class="participant participant-tail" data-participant="YFinance API"><text fill="#000000" font-family="sans-serif" font-size="14" font-weight="bold" lengthAdjust="spacing" textLength="92.627" x="20" y="1056.2988">YFinance API</text><path d="M51.3135,1069.252 C51.3135,1059.252 69.3135,1059.252 69.3135,1059.252 C69.3135,1059.252 87.3135,1059.252 87.3135,1069.252 L87.3135,1095.252 C87.3135,1105.252 69.3135,1105.252 69.3135,1105.252 C69.3135,1105.252 51.3135,1105.252 51.3135,1095.252 L51.3135,1069.252" fill="#720E9E" style="stroke:#181818;stroke-width:1.5;"/><path d="M51.3135,1069.252 C51.3135,1079.252 69.3135,1079.252 69.3135,1079.252 C69.3135,1079.252 87.3135,1079.252 87.3135,1069.252" fill="none" style="stroke:#181818;stroke-width:1.5;"/></g><g class="participant participant-head" data-participant="Configuration"><rect fill="#2E8B57" height="30.4883" style="stroke:#181818;stroke-width:0.5;" width="113.8525" x="132.627" y="82.4434"/><rect fill="#2E8B57" height="30.4883" style="stroke:#181818;stroke-width:0.5;" width="113.8525" x="128.627" y="86.4434"/><text fill="#000000" font-family="sans-serif" font-size="14" font-weight="bold" lengthAdjust="spacing" textLength="99.8525" x="135.627" y="106.9785">Configuration</text></g><g class="participant participant-tail" data-participant="Configuration"><rect fill="#2E8B57" height="30.4883" style="stroke:#181818;stroke-width:0.5;" width="113.8525" x="132.627" y="1042.7637"/><rect fill="#2E8B57" height="30.4883" style="stroke:#181818;stroke-width:0.5;" width="113.8525" x="128.627" y="1046.7637"/><text fill="#000000" font-family="sans-serif" font-size="14" font-weight="bold" lengthAdjust="spacing" textLength="99.8525" x="135.627" y="1067.2988">Configuration</text></g><g class="participant participant-head" data-participant="DataLoader"><rect fill="#FFFFFF" height="30.4883" rx="2.5" ry="2.5" style="stroke:#181818;stroke-width:0.5;" width="96.3936" x="265.5273" y="86.4434"/><text fill="#000000" font-family="sans-serif" font-size="14" font-weight="bold" lengthAdjust="spacing" textLength="82.3936" x="272.5273" y="106.9785">DataLoader</text></g><g class="participant participant-tail" data-participant="DataLoader"><rect fill="#FFFFFF" height="30.4883" rx="2.5" ry="2.5" style="stroke:#181818;stroke-width:0.5;" width="96.3936" x="265.5273" y="1042.7637"/><text fill="#000000" font-family="sans-serif" font-size="14" font-weight="bold" lengthAdjust="spacing" textLength="82.3936" x="272.5273" y="1063.2988">DataLoader</text></g><g class="participant participant-head" data-participant="Local data"><text fill="#000000" font-family="sans-serif" font-size="14" font-weight="bold" lengthAdjust="spacing" textLength="73.3428" x="406.1841" y="114.9785">Local data</text><path d="M427.8555,65.4434 C427.8555,55.4434 445.8555,55.4434 445.8555,55.4434 C445.8555,55.4434 463.8555,55.4434 463.8555,65.4434 L463.8555,91.4434 C463.8555,101.4434 445.8555,101.4434 445.8555,101.4434 C445.8555,101.4434 427.8555,101.4434 427.8555,91.4434 L427.8555,65.4434" fill="#4682B4" style="stroke:#181818;stroke-width:1.5;"/><path d="M427.8555,65.4434 C427.8555,75.4434 445.8555,75.4434 445.8555,75.4434 C445.8555,75.4434 463.8555,75.4434 463.8555,65.4434" fill="none" style="stroke:#181818;stroke-width:1.5;"/></g><g class="participant participant-tail" data-participant="Local data"><text fill="#000000" font-family="sans-serif" font-size="14" font-weight="bold" lengthAdjust="spacing" textLength="73.3428" x="406.1841" y="1056.2988">Local data</text><path d="M427.8555,1069.252 C427.8555,1059.252 445.8555,1059.252 445.8555,1059.252 C445.8555,1059.252 463.8555,1059.252 463.8555,1069.252 L463.8555,1095.252 C463.8555,1105.252 445.8555,1105.252 445.8555,1105.252 C445.8555,1105.252 427.8555,1105.252 427.8555,1095.252 L427.8555,1069.252" fill="#4682B4" style="stroke:#181818;stroke-width:1.5;"/><path d="M427.8555,1069.252 C427.8555,1079.252 445.8555,1079.252 445.8555,1079.252 C445.8555,1079.252 463.8555,1079.252 463.8555,1069.252" fill="none" style="stroke:#181818;stroke-width:1.5;"/></g><g class="participant participant-head" data-participant="DataProcessor"><rect fill="#FFFFFF" height="30.4883" rx="2.5" ry="2.5" style="stroke:#181818;stroke-width:0.5;" width="117.9199" x="529.0625" y="86.4434"/><text fill="#000000" font-family="sans-serif" font-size="14" font-weight="bold" lengthAdjust="spacing" textLength="103.9199" x="536.0625" y="106.9785">DataProcessor</text></g><g class="participant participant-tail" data-participant="DataProcessor"><rect fill="#FFFFFF" height="30.4883" rx="2.5" ry="2.5" style="stroke:#181818;stroke-width:0.5;" width="117.9199" x="529.0625" y="1042.7637"/><text fill="#000000" font-family="sans-serif" font-size="14" font-weight="bold" lengthAdjust="spacing" textLength="103.9199" x="536.0625" y="1063.2988">DataProcessor</text></g><g class="participant participant-head" data-participant="HeatmapBuilder"><rect fill="#FFFFFF" height="30.4883" rx="2.5" ry="2.5" style="stroke:#181818;stroke-width:0.5;" width="129.0762" x="659.543" y="86.4434"/><text fill="#000000" font-family="sans-serif" font-size="14" font-weight="bold" lengthAdjust="spacing" textLength="115.0762" x="666.543" y="106.9785">HeatmapBuilder</text></g><g class="participant participant-tail" data-participant="HeatmapBuilder"><rect fill="#FFFFFF" height="30.4883" rx="2.5" ry="2.5" style="stroke:#181818;stroke-width:0.5;" width="129.0762" x="659.543" y="1042.7637"/><text fill="#000000" font-family="sans-serif" font-size="14" font-weight="bold" lengthAdjust="spacing" textLength="115.0762" x="666.543" y="1063.2988">HeatmapBuilder</text></g><g class="participant participant-head" data-participant="Logs"><rect fill="#008B8B" height="30.4883" style="stroke:#181818;stroke-width:0.5;" width="48.2344" x="914.9941" y="82.4434"/><rect fill="#008B8B" height="30.4883" style="stroke:#181818;stroke-width:0.5;" width="48.2344" x="910.9941" y="86.4434"/><text fill="#000000" font-family="sans-serif" font-size="14" font-weight="bold" lengthAdjust="spacing" textLength="34.2344" x="917.9941" y="106.9785">Logs</text></g><g class="participant participant-tail" data-participant="Logs"><rect fill="#008B8B" height="30.4883" style="stroke:#181818;stroke-width:0.5;" width="48.2344" x="914.9941" y="1042.7637"/><rect fill="#008B8B" height="30.4883" style="stroke:#181818;stroke-width:0.5;" width="48.2344" x="910.9941" y="1046.7637"/><text fill="#000000" font-family="sans-serif" font-size="14" font-weight="bold" lengthAdjust="spacing" textLength="34.2344" x="917.9941" y="1067.2988">Logs</text></g><g><title>DataLoader</title><rect fill="#778899" height="164.2422" style="stroke:#181818;stroke-width:1;" width="10" x="308.7241" y="181.5527"/></g><g><title>DataProcessor</title><rect fill="#778899" height="264.1738" style="stroke:#181818;stroke-width:1;" width="10" x="583.0225" y="383.1055"/></g><g><title>HeatmapBuilder</title><rect fill="#778899" height="334.1738" style="stroke:#181818;stroke-width:1;" width="10" x="719.0811" y="684.5898"/></g><path d="M10,134.9316 L143.188,134.9316 L143.188,142.2422 L133.188,152.2422 L10,152.2422 L10,134.9316" fill="#EEEEEE" style="stroke:#000000;stroke-width:1.5;"/><rect fill="none" height="891.832" style="stroke:#000000;stroke-width:1.5;" width="963.2285" x="10" y="134.9316"/><text fill="#000000" font-family="sans-serif" font-size="13" font-weight="bold" lengthAdjust="spacing" textLength="88.188" x="25" y="148.5">Data Pipeline</text><g class="message" data-participant-1="DataLoader" data-participant-2="DataLoader"><line style="stroke:#181818;stroke-width:1;" x1="313.7241" x2="360.7241" y1="168.5527" y2="168.5527"/><line style="stroke:#181818;stroke-width:1;" x1="360.7241" x2="360.7241" y1="168.5527" y2="181.5527"/><line style="stroke:#181818;stroke-width:1;" x1="319.7241" x2="360.7241" y1="181.5527" y2="181.5527"/><polygon fill="#181818" points="329.7241,177.5527,319.7241,181.5527,329.7241,185.5527,325.7241,181.5527" style="stroke:#181818;stroke-width:1;"/><text fill="#0000FF" font-family="sans-serif" font-size="13" font-weight="bold" lengthAdjust="spacing" textLength="8.5757" x="325.7241" y="163.8105">1</text><text fill="#000000" font-family="sans-serif" font-size="13" lengthAdjust="spacing" textLength="52.7554" x="338.2998" y="163.8105">Initialise</text></g><g class="message" data-participant-1="DataLoader" data-participant-2="Logs"><polygon fill="#181818" points="925.1113,196.5527,935.1113,200.5527,925.1113,204.5527,929.1113,200.5527" style="stroke:#181818;stroke-width:1;"/><line style="stroke:#181818;stroke-width:1;stroke-dasharray:2.0,2.0;" x1="318.7241" x2="931.1113" y1="200.5527" y2="200.5527"/></g><g class="message" data-participant-1="DataLoader" data-participant-2="Configuration"><polygon fill="#181818" points="198.5532,241.1738,188.5532,245.1738,198.5532,249.1738,194.5532,245.1738" style="stroke:#181818;stroke-width:1;"/><polygon fill="#181818" points="296.7241,241.1738,306.7241,245.1738,296.7241,249.1738,300.7241,245.1738" style="stroke:#181818;stroke-width:1;"/><line style="stroke:#181818;stroke-width:1;" x1="192.5532" x2="302.7241" y1="245.1738" y2="245.1738"/><text fill="#0000FF" font-family="sans-serif" font-size="13" font-weight="bold" lengthAdjust="spacing" textLength="8.5757" x="204.5532" y="232.7764">2</text><text fill="#000000" font-family="sans-serif" font-size="13" lengthAdjust="spacing" textLength="30.2783" x="217.1289" y="225.1211">Load</text><text fill="#000000" font-family="sans-serif" font-size="13" lengthAdjust="spacing" textLength="84.5952" x="217.1289" y="240.4316">configuration</text></g><g class="message" data-participant-1="DataLoader" data-participant-2="Logs"><polygon fill="#181818" points="925.1113,255.1738,935.1113,259.1738,925.1113,263.1738,929.1113,259.1738" style="stroke:#181818;stroke-width:1;"/><line style="stroke:#181818;stroke-width:1;stroke-dasharray:2.0,2.0;" x1="318.7241" x2="931.1113" y1="259.1738" y2="259.1738"/></g><g class="message" data-participant-1="DataLoader" data-participant-2="YFinance API"><polygon fill="#181818" points="80.3135,284.4844,70.3135,288.4844,80.3135,292.4844,76.3135,288.4844" style="stroke:#181818;stroke-width:1;"/><polygon fill="#181818" points="296.7241,284.4844,306.7241,288.4844,296.7241,292.4844,300.7241,288.4844" style="stroke:#181818;stroke-width:1;"/><line style="stroke:#181818;stroke-width:1;" x1="74.3135" x2="302.7241" y1="288.4844" y2="288.4844"/><text fill="#0000FF" font-family="sans-serif" font-size="13" font-weight="bold" lengthAdjust="spacing" textLength="8.5757" x="86.3135" y="283.7422">3</text><text fill="#000000" font-family="sans-serif" font-size="13" lengthAdjust="spacing" textLength="94.4277" x="98.8892" y="283.7422">Download data</text></g><g class="message" data-participant-1="DataLoader" data-participant-2="Logs"><polygon fill="#181818" points="925.1113,298.4844,935.1113,302.4844,925.1113,306.4844,929.1113,302.4844" style="stroke:#181818;stroke-width:1;"/><line style="stroke:#181818;stroke-width:1;stroke-dasharray:2.0,2.0;" x1="318.7241" x2="931.1113" y1="302.4844" y2="302.4844"/></g><g class="message" data-participant-1="DataLoader" data-participant-2="Local data"><polygon fill="#181818" points="433.8555,327.7949,443.8555,331.7949,433.8555,335.7949,437.8555,331.7949" style="stroke:#181818;stroke-width:1;"/><line style="stroke:#181818;stroke-width:1;" x1="318.7241" x2="439.8555" y1="331.7949" y2="331.7949"/><text fill="#0000FF" font-family="sans-serif" font-size="13" font-weight="bold" lengthAdjust="spacing" textLength="8.5757" x="325.7241" y="327.0527">4</text><text fill="#000000" font-family="sans-serif" font-size="13" lengthAdjust="spacing" textLength="90.5557" x="338.2998" y="327.0527">Store raw data</text></g><g class="message" data-participant-1="DataLoader" data-participant-2="Logs"><polygon fill="#181818" points="925.1113,341.7949,935.1113,345.7949,925.1113,349.7949,929.1113,345.7949" style="stroke:#181818;stroke-width:1;"/><line style="stroke:#181818;stroke-width:1;stroke-dasharray:2.0,2.0;" x1="313.7241" x2="931.1113" y1="345.7949" y2="345.7949"/></g><g class="message" data-participant-1="DataProcessor" data-participant-2="DataProcessor"><line style="stroke:#181818;stroke-width:1;" x1="588.0225" x2="635.0225" y1="370.1055" y2="370.1055"/><line style="stroke:#181818;stroke-width:1;" x1="635.0225" x2="635.0225" y1="370.1055" y2="383.1055"/><line style="stroke:#181818;stroke-width:1;" x1="594.0225" x2="635.0225" y1="383.1055" y2="383.1055"/><polygon fill="#181818" points="604.0225,379.1055,594.0225,383.1055,604.0225,387.1055,600.0225,383.1055" style="stroke:#181818;stroke-width:1;"/><text fill="#0000FF" font-family="sans-serif" font-size="13" font-weight="bold" lengthAdjust="spacing" textLength="8.5757" x="600.0225" y="365.3633">5</text><text fill="#000000" font-family="sans-serif" font-size="13" lengthAdjust="spacing" textLength="52.7554" x="612.5981" y="365.3633">Initialise</text></g><g class="message" data-participant-1="DataProcessor" data-participant-2="Logs"><polygon fill="#181818" points="925.1113,398.1055,935.1113,402.1055,925.1113,406.1055,929.1113,402.1055" style="stroke:#181818;stroke-width:1;"/><line style="stroke:#181818;stroke-width:1;stroke-dasharray:2.0,2.0;" x1="593.0225" x2="931.1113" y1="402.1055" y2="402.1055"/></g><g class="message" data-participant-1="DataProcessor" data-participant-2="Local data"><polygon fill="#181818" points="456.8555,427.416,446.8555,431.416,456.8555,435.416,452.8555,431.416" style="stroke:#181818;stroke-width:1;"/><polygon fill="#181818" points="571.0225,427.416,581.0225,431.416,571.0225,435.416,575.0225,431.416" style="stroke:#181818;stroke-width:1;"/><line style="stroke:#181818;stroke-width:1;" x1="450.8555" x2="577.0225" y1="431.416" y2="431.416"/><text fill="#0000FF" font-family="sans-serif" font-size="13" font-weight="bold" lengthAdjust="spacing" textLength="8.5757" x="462.8555" y="426.6738">6</text><text fill="#000000" font-family="sans-serif" font-size="13" lengthAdjust="spacing" textLength="61.7944" x="475.4312" y="426.6738">Load data</text></g><g class="message" data-participant-1="DataProcessor" data-participant-2="Logs"><polygon fill="#181818" points="925.1113,441.416,935.1113,445.416,925.1113,449.416,929.1113,445.416" style="stroke:#181818;stroke-width:1;"/><line style="stroke:#181818;stroke-width:1;stroke-dasharray:2.0,2.0;" x1="593.0225" x2="931.1113" y1="445.416" y2="445.416"/></g><g class="message" data-participant-1="DataProcessor" data-participant-2="DataProcessor"><line style="stroke:#181818;stroke-width:1;" x1="593.0225" x2="635.0225" y1="490.0371" y2="490.0371"/><line style="stroke:#181818;stroke-width:1;" x1="635.0225" x2="635.0225" y1="490.0371" y2="503.0371"/><line style="stroke:#181818;stroke-width:1;" x1="594.0225" x2="635.0225" y1="503.0371" y2="503.0371"/><polygon fill="#181818" points="604.0225,499.0371,594.0225,503.0371,604.0225,507.0371,600.0225,503.0371" style="stroke:#181818;stroke-width:1;"/><text fill="#0000FF" font-family="sans-serif" font-size="13" font-weight="bold" lengthAdjust="spacing" textLength="8.5757" x="600.0225" y="477.6396">7</text><text fill="#000000" font-family="sans-serif" font-size="13" lengthAdjust="spacing" textLength="61.1025" x="612.5981" y="469.9844">Build USD</text><text fill="#000000" font-family="sans-serif" font-size="13" lengthAdjust="spacing" textLength="50.4321" x="612.5981" y="485.2949">regimes</text></g><g class="message" data-participant-1="DataProcessor" data-participant-2="Logs"><polygon fill="#181818" points="925.1113,513.0371,935.1113,517.0371,925.1113,521.0371,929.1113,517.0371" style="stroke:#181818;stroke-width:1;"/><line style="stroke:#181818;stroke-width:1;stroke-dasharray:2.0,2.0;" x1="593.0225" x2="931.1113" y1="517.0371" y2="517.0371"/></g><g class="message" data-participant-1="DataProcessor" data-participant-2="DataProcessor"><line style="stroke:#181818;stroke-width:1;" x1="593.0225" x2="635.0225" y1="561.6582" y2="561.6582"/><line style="stroke:#181818;stroke-width:1;" x1="635.0225" x2="635.0225" y1="561.6582" y2="574.6582"/><line style="stroke:#181818;stroke-width:1;" x1="594.0225" x2="635.0225" y1="574.6582" y2="574.6582"/><polygon fill="#181818" points="604.0225,570.6582,594.0225,574.6582,604.0225,578.6582,600.0225,574.6582" style="stroke:#181818;stroke-width:1;"/><text fill="#0000FF" font-family="sans-serif" font-size="13" font-weight="bold" lengthAdjust="spacing" textLength="8.5757" x="600.0225" y="549.2607">8</text><text fill="#000000" font-family="sans-serif" font-size="13" lengthAdjust="spacing" textLength="89.4829" x="612.5981" y="541.6055">Build currency</text><text fill="#000000" font-family="sans-serif" font-size="13" lengthAdjust="spacing" textLength="51.3208" x="612.5981" y="556.916">features</text></g><g class="message" data-participant-1="DataProcessor" data-participant-2="Logs"><polygon fill="#181818" points="925.1113,584.6582,935.1113,588.6582,925.1113,592.6582,929.1113,588.6582" style="stroke:#181818;stroke-width:1;"/><line style="stroke:#181818;stroke-width:1;stroke-dasharray:2.0,2.0;" x1="593.0225" x2="931.1113" y1="588.6582" y2="588.6582"/></g><g class="message" data-participant-1="DataProcessor" data-participant-2="Local data"><polygon fill="#181818" points="456.8555,629.2793,446.8555,633.2793,456.8555,637.2793,452.8555,633.2793" style="stroke:#181818;stroke-width:1;"/><line style="stroke:#181818;stroke-width:1;" x1="450.8555" x2="582.0225" y1="633.2793" y2="633.2793"/><text fill="#0000FF" font-family="sans-serif" font-size="13" font-weight="bold" lengthAdjust="spacing" textLength="8.5757" x="462.8555" y="620.8818">9</text><text fill="#000000" font-family="sans-serif" font-size="13" lengthAdjust="spacing" textLength="100.5913" x="475.4312" y="613.2266">Store processed</text><text fill="#000000" font-family="sans-serif" font-size="13" lengthAdjust="spacing" textLength="27.4028" x="475.4312" y="628.5371">data</text></g><g class="message" data-participant-1="DataProcessor" data-participant-2="Logs"><polygon fill="#181818" points="925.1113,643.2793,935.1113,647.2793,925.1113,651.2793,929.1113,647.2793" style="stroke:#181818;stroke-width:1;"/><line style="stroke:#181818;stroke-width:1;stroke-dasharray:2.0,2.0;" x1="588.0225" x2="931.1113" y1="647.2793" y2="647.2793"/></g><g class="message" data-participant-1="HeatmapBuilder" data-participant-2="HeatmapBuilder"><line style="stroke:#181818;stroke-width:1;" x1="724.0811" x2="771.0811" y1="671.5898" y2="671.5898"/><line style="stroke:#181818;stroke-width:1;" x1="771.0811" x2="771.0811" y1="671.5898" y2="684.5898"/><line style="stroke:#181818;stroke-width:1;" x1="730.0811" x2="771.0811" y1="684.5898" y2="684.5898"/><polygon fill="#181818" points="740.0811,680.5898,730.0811,684.5898,740.0811,688.5898,736.0811,684.5898" style="stroke:#181818;stroke-width:1;"/><text fill="#0000FF" font-family="sans-serif" font-size="13" font-weight="bold" lengthAdjust="spacing" textLength="17.1514" x="736.0811" y="666.8477">10</text><text fill="#000000" font-family="sans-serif" font-size="13" lengthAdjust="spacing" textLength="52.7554" x="757.2324" y="666.8477">Initialise</text></g><g class="message" data-participant-1="HeatmapBuilder" data-participant-2="Logs"><polygon fill="#181818" points="925.1113,699.5898,935.1113,703.5898,925.1113,707.5898,929.1113,703.5898" style="stroke:#181818;stroke-width:1;"/><line style="stroke:#181818;stroke-width:1;stroke-dasharray:2.0,2.0;" x1="729.0811" x2="931.1113" y1="703.5898" y2="703.5898"/></g><g class="message" data-participant-1="HeatmapBuilder" data-participant-2="Local data"><polygon fill="#181818" points="456.8555,728.9004,446.8555,732.9004,456.8555,736.9004,452.8555,732.9004" style="stroke:#181818;stroke-width:1;"/><polygon fill="#181818" points="707.0811,728.9004,717.0811,732.9004,707.0811,736.9004,711.0811,732.9004" style="stroke:#181818;stroke-width:1;"/><line style="stroke:#181818;stroke-width:1;" x1="450.8555" x2="713.0811" y1="732.9004" y2="732.9004"/><text fill="#0000FF" font-family="sans-serif" font-size="13" font-weight="bold" lengthAdjust="spacing" textLength="17.1514" x="462.8555" y="728.1582">11</text><text fill="#000000" font-family="sans-serif" font-size="13" lengthAdjust="spacing" textLength="183.5234" x="484.0068" y="728.1582">Clear matrices and heatmaps</text></g><g class="message" data-participant-1="HeatmapBuilder" data-participant-2="Logs"><polygon fill="#181818" points="925.1113,742.9004,935.1113,746.9004,925.1113,750.9004,929.1113,746.9004" style="stroke:#181818;stroke-width:1;"/><line style="stroke:#181818;stroke-width:1;stroke-dasharray:2.0,2.0;" x1="729.0811" x2="931.1113" y1="746.9004" y2="746.9004"/></g><g class="message" data-participant-1="HeatmapBuilder" data-participant-2="Local data"><polygon fill="#181818" points="456.8555,772.2109,446.8555,776.2109,456.8555,780.2109,452.8555,776.2109" style="stroke:#181818;stroke-width:1;"/><polygon fill="#181818" points="707.0811,772.2109,717.0811,776.2109,707.0811,780.2109,711.0811,776.2109" style="stroke:#181818;stroke-width:1;"/><line style="stroke:#181818;stroke-width:1;" x1="450.8555" x2="713.0811" y1="776.2109" y2="776.2109"/><text fill="#0000FF" font-family="sans-serif" font-size="13" font-weight="bold" lengthAdjust="spacing" textLength="17.1514" x="462.8555" y="771.4688">12</text><text fill="#000000" font-family="sans-serif" font-size="13" lengthAdjust="spacing" textLength="129.9746" x="484.0068" y="771.4688">Load processed data</text></g><g class="message" data-participant-1="HeatmapBuilder" data-participant-2="Logs"><polygon fill="#181818" points="925.1113,786.2109,935.1113,790.2109,925.1113,794.2109,929.1113,790.2109" style="stroke:#181818;stroke-width:1;"/><line style="stroke:#181818;stroke-width:1;stroke-dasharray:2.0,2.0;" x1="729.0811" x2="931.1113" y1="790.2109" y2="790.2109"/></g><g class="message" data-participant-1="HeatmapBuilder" data-participant-2="HeatmapBuilder"><line style="stroke:#181818;stroke-width:1;" x1="729.0811" x2="771.0811" y1="819.5215" y2="819.5215"/><line style="stroke:#181818;stroke-width:1;" x1="771.0811" x2="771.0811" y1="819.5215" y2="832.5215"/><line style="stroke:#181818;stroke-width:1;" x1="730.0811" x2="771.0811" y1="832.5215" y2="832.5215"/><polygon fill="#181818" points="740.0811,828.5215,730.0811,832.5215,740.0811,836.5215,736.0811,832.5215" style="stroke:#181818;stroke-width:1;"/><text fill="#0000FF" font-family="sans-serif" font-size="13" font-weight="bold" lengthAdjust="spacing" textLength="17.1514" x="736.0811" y="814.7793">13</text><text fill="#000000" font-family="sans-serif" font-size="13" lengthAdjust="spacing" textLength="157.8789" x="757.2324" y="814.7793">Building feature matrices</text></g><g class="message" data-participant-1="HeatmapBuilder" data-participant-2="Logs"><polygon fill="#181818" points="925.1113,842.5215,935.1113,846.5215,925.1113,850.5215,929.1113,846.5215" style="stroke:#181818;stroke-width:1;"/><line style="stroke:#181818;stroke-width:1;stroke-dasharray:2.0,2.0;" x1="729.0811" x2="931.1113" y1="846.5215" y2="846.5215"/></g><g class="message" data-participant-1="HeatmapBuilder" data-participant-2="Local data"><polygon fill="#181818" points="456.8555,871.832,446.8555,875.832,456.8555,879.832,452.8555,875.832" style="stroke:#181818;stroke-width:1;"/><line style="stroke:#181818;stroke-width:1;" x1="450.8555" x2="718.0811" y1="875.832" y2="875.832"/><text fill="#0000FF" font-family="sans-serif" font-size="13" font-weight="bold" lengthAdjust="spacing" textLength="17.1514" x="462.8555" y="871.0898">14</text><text fill="#000000" font-family="sans-serif" font-size="13" lengthAdjust="spacing" textLength="90.3081" x="484.0068" y="871.0898">Store matrices</text></g><g class="message" data-participant-1="HeatmapBuilder" data-participant-2="Logs"><polygon fill="#181818" points="925.1113,885.832,935.1113,889.832,925.1113,893.832,929.1113,889.832" style="stroke:#181818;stroke-width:1;"/><line style="stroke:#181818;stroke-width:1;stroke-dasharray:2.0,2.0;" x1="729.0811" x2="931.1113" y1="889.832" y2="889.832"/></g><g class="message" data-participant-1="HeatmapBuilder" data-participant-2="Local data"><polygon fill="#181818" points="456.8555,915.1426,446.8555,919.1426,456.8555,923.1426,452.8555,919.1426" style="stroke:#181818;stroke-width:1;"/><polygon fill="#181818" points="707.0811,915.1426,717.0811,919.1426,707.0811,923.1426,711.0811,919.1426" style="stroke:#181818;stroke-width:1;"/><line style="stroke:#181818;stroke-width:1;" x1="450.8555" x2="713.0811" y1="919.1426" y2="919.1426"/><text fill="#0000FF" font-family="sans-serif" font-size="13" font-weight="bold" lengthAdjust="spacing" textLength="17.1514" x="462.8555" y="914.4004">15</text><text fill="#000000" font-family="sans-serif" font-size="13" lengthAdjust="spacing" textLength="88.1753" x="484.0068" y="914.4004">Load matrices</text></g><g class="message" data-participant-1="HeatmapBuilder" data-participant-2="Logs"><polygon fill="#181818" points="925.1113,929.1426,935.1113,933.1426,925.1113,937.1426,929.1113,933.1426" style="stroke:#181818;stroke-width:1;"/><line style="stroke:#181818;stroke-width:1;stroke-dasharray:2.0,2.0;" x1="729.0811" x2="931.1113" y1="933.1426" y2="933.1426"/></g><g class="message" data-participant-1="HeatmapBuilder" data-participant-2="HeatmapBuilder"><line style="stroke:#181818;stroke-width:1;" x1="729.0811" x2="771.0811" y1="962.4531" y2="962.4531"/><line style="stroke:#181818;stroke-width:1;" x1="771.0811" x2="771.0811" y1="962.4531" y2="975.4531"/><line style="stroke:#181818;stroke-width:1;" x1="730.0811" x2="771.0811" y1="975.4531" y2="975.4531"/><polygon fill="#181818" points="740.0811,971.4531,730.0811,975.4531,740.0811,979.4531,736.0811,975.4531" style="stroke:#181818;stroke-width:1;"/><text fill="#0000FF" font-family="sans-serif" font-size="13" font-weight="bold" lengthAdjust="spacing" textLength="17.1514" x="736.0811" y="957.7109">16</text><text fill="#000000" font-family="sans-serif" font-size="13" lengthAdjust="spacing" textLength="96.8335" x="757.2324" y="957.7109">Build heatmaps</text></g><g class="message" data-participant-1="HeatmapBuilder" data-participant-2="Logs"><polygon fill="#181818" points="925.1113,985.4531,935.1113,989.4531,925.1113,993.4531,929.1113,989.4531" style="stroke:#181818;stroke-width:1;"/><line style="stroke:#181818;stroke-width:1;stroke-dasharray:2.0,2.0;" x1="729.0811" x2="931.1113" y1="989.4531" y2="989.4531"/></g><g class="message" data-participant-1="HeatmapBuilder" data-participant-2="Local data"><polygon fill="#181818" points="456.8555,1014.7637,446.8555,1018.7637,456.8555,1022.7637,452.8555,1018.7637" style="stroke:#181818;stroke-width:1;"/><line style="stroke:#181818;stroke-width:1;" x1="450.8555" x2="723.0811" y1="1018.7637" y2="1018.7637"/><text fill="#0000FF" font-family="sans-serif" font-size="13" font-weight="bold" lengthAdjust="spacing" textLength="17.1514" x="462.8555" y="1014.0215">17</text><text fill="#000000" font-family="sans-serif" font-size="13" lengthAdjust="spacing" textLength="98.0015" x="484.0068" y="1014.0215">Store heatmaps</text></g><!--SRC=[lLJVRzem47xtNt62XpunMALr6c98_6ZNIan2IgTf4Yz7SWqUZftPpYhsryy9b3WXTDq6pPDp_dpVtNUVVR6oDZNzRZSLA6sMY3UXIhg6VcGaG-f476ED2MDcpMMARWbpr9Q7F7Nm6oLjO3U2OAb4v66cQ769Xeu29ae82YrNqXp5Z35SnrfbCd9efU7hYblozk-v5Li6_elWybtZLfaOCwjabYn9GslmuFOWpDD-N8gCXeFbiCMOpO_1vz7zxLNlwcrl11sOg- -kJhV8Mu8vJqbmIOn5kmwXzUs6ItHQmMX-ruBs-ylUzOTh5fODkcRb0uypZValj0F2Jvf8ihHKiaW_KnYvwjhRHak6cGfHGFxlyWUMI8nTpGV7vrg5P8pQP_01juGsmNISSU5n-5NEL6oWFKMzdcnGCfPBdzRQll3AVF88ysATeTT87-uajnm5DyJGiVn4IvL6PpnUsK2ui1Damy1ztfICLMaHymaSGrve7Ql9P4cbb853LeJlGxwpaA4VF3rdrGzzcAf7ATnsCR_JqkLidZVw45Yb2JG-deeiegUviUtiIuzLnb-6TmxO1uwRmBFhN_Z0O_gpJYLuSA3Lx4Kp-KUwGnMAYmTVWkb2QefvGkOrUSDCQpUipK8-k7SWqsTZR_9ZkWMGktkdqxlYpDhZjhTcBUuoLYFDvgm_bIzqPvti-Vfhw4D_JWIXXWIjvauHG1d1Qdl6l5O9nHNPJ-_vo_9Vr0s3AHPSnh0px5w9irNGPDtpaXvH_EoTDcfzPdST4NXFwjrdaX7x3G00]--></g></svg>