<svg xmlns="http://www.w3.org/2000/svg" xmlns:xlink="http://www.w3.org/1999/xlink" contentStyleType="text/css" data-diagram-type="SEQUENCE" height="1269px" preserveAspectRatio="none" style="width:1492px;height:1269px;background:#FFFFFF;" version="1.1" viewBox="0 0 1492 1269" width="1492px" zoomAndPan="magnify"><title>FX Heatmap Strategy</title><defs/><g><text fill="#000000" font-family="sans-serif" font-size="25" font-weight="bold" lengthAdjust="spacing" textLength="268.3228" x="613.6111" y="39.1699">FX Heatmap Strategy</text><g><title>DataLoader</title><rect fill="#778899" height="63.6211" style="stroke:#181818;stroke-width:1;" width="10" x="210.3169" y="205.8633"/></g><g><title>DataProcessor</title><rect fill="#778899" height="194.1738" style="stroke:#181818;stroke-width:1;" width="10" x="484.6152" y="338.1055"/></g><g><title>HeatmapBuilder</title><rect fill="#778899" height="177.5527" style="stroke:#181818;stroke-width:1;" width="10" x="620.6738" y="600.9004"/></g><g><title>ThermalVision</title><rect fill="#778899" height="105.9316" style="stroke:#181818;stroke-width:1;" width="10" x="981.2095" y="878.3848"/></g><g><title>BackTest</title><rect fill="#778899" height="105.9316" style="stroke:#181818;stroke-width:1;" width="10" x="1308.7817" y="1052.9375"/></g><rect fill="none" height="658.5215" style="stroke:#000000;stroke-width:1.5;" width="877.6055" x="10" y="134.9316"/><rect fill="#ADD8E6" height="118.2422" style="stroke:#000000;stroke-width:1.5;" width="377.1196" x="20" y="159.2422"/><rect fill="#ADD8E6" height="248.7949" style="stroke:#000000;stroke-width:1.5;" width="327.897" x="297.7769" y="291.4844"/><rect fill="#ADD8E6" height="232.1738" style="stroke:#000000;stroke-width:1.5;" width="579.8286" x="297.7769" y="554.2793"/><rect fill="none" height="366.416" style="stroke:#000000;stroke-width:1.5;" width="696.7422" x="789.8027" y="807.4531"/><rect fill="#ADD8E6" height="160.5527" style="stroke:#000000;stroke-width:1.5;" width="424.9722" x="799.8027" y="831.7637"/><rect fill="#ADD8E6" height="160.5527" style="stroke:#000000;stroke-width:1.5;" width="676.7422" x="799.8027" y="1006.3164"/><g><title>YFinance API</title><rect fill="#000000" fill-opacity="0.00000" height="1072.9375" width="8" x="75.3135" y="117.9316"/><line style="stroke:#181818;stroke-width:0.5;stroke-dasharray:5.0,5.0;" x1="79" x2="79" y1="117.9316" y2="1190.8691"/></g><g><title>DataLoader</title><rect fill="#000000" fill-opacity="0.00000" height="1072.9375" width="8" x="211.3169" y="117.9316"/><line style="stroke:#181818;stroke-width:0.5;stroke-dasharray:5.0,5.0;" x1="215.1201" x2="215.1201" y1="117.9316" y2="1190.8691"/></g><g><title>Local data</title><rect fill="#000000" fill-opacity="0.00000" height="1072.9375" width="8" x="343.4482" y="117.9316"/><line style="stroke:#181818;stroke-width:0.5;stroke-dasharray:5.0,5.0;" x1="346.7769" x2="346.7769" y1="117.9316" y2="1190.8691"/></g><g><title>DataProcessor</title><rect fill="#000000" fill-opacity="0.00000" height="1072.9375" width="8" x="485.6152" y="117.9316"/><line style="stroke:#181818;stroke-width:0.5;stroke-dasharray:5.0,5.0;" x1="488.6553" x2="488.6553" y1="117.9316" y2="1190.8691"/></g><g><title>HeatmapBuilder</title><rect fill="#000000" fill-opacity="0.00000" height="1072.9375" width="8" x="621.6738" y="117.9316"/><line style="stroke:#181818;stroke-width:0.5;stroke-dasharray:5.0,5.0;" x1="625.1357" x2="625.1357" y1="117.9316" y2="1190.8691"/></g><g><title>Images</title><rect fill="#000000" fill-opacity="0.00000" height="1072.9375" width="8" x="834.7041" y="117.9316"/><line style="stroke:#181818;stroke-width:0.5;stroke-dasharray:5.0,5.0;" x1="837.8027" x2="837.8027" y1="117.9316" y2="1190.8691"/></g><g><title>ThermalVision</title><rect fill="#000000" fill-opacity="0.00000" height="1072.9375" width="8" x="982.2095" y="117.9316"/><line style="stroke:#181818;stroke-width:0.5;stroke-dasharray:5.0,5.0;" x1="985.8496" x2="985.8496" y1="117.9316" y2="1190.8691"/></g><g><title>Model</title><rect fill="#000000" fill-opacity="0.00000" height="1072.9375" width="8" x="1185.9341" y="117.9316"/><line style="stroke:#181818;stroke-width:0.5;stroke-dasharray:5.0,5.0;" x1="1189.0933" x2="1189.0933" y1="117.9316" y2="1190.8691"/></g><g><title>BackTest</title><rect fill="#000000" fill-opacity="0.00000" height="1072.9375" width="8" x="1309.7817" y="117.9316"/><line style="stroke:#181818;stroke-width:0.5;stroke-dasharray:5.0,5.0;" x1="1313.376" x2="1313.376" y1="117.9316" y2="1190.8691"/></g><g class="participant participant-head" data-participant="YFinance API"><text fill="#000000" font-family="sans-serif" font-size="14" font-weight="bold" lengthAdjust="spacing" textLength="92.627" x="30" y="114.9785">YFinance API</text><path d="M61.3135,65.4434 C61.3135,55.4434 79.3135,55.4434 79.3135,55.4434 C79.3135,55.4434 97.3135,55.4434 97.3135,65.4434 L97.3135,91.4434 C97.3135,101.4434 79.3135,101.4434 79.3135,101.4434 C79.3135,101.4434 61.3135,101.4434 61.3135,91.4434 L61.3135,65.4434" fill="#720E9E" style="stroke:#181818;stroke-width:1.5;"/><path d="M61.3135,65.4434 C61.3135,75.4434 79.3135,75.4434 79.3135,75.4434 C79.3135,75.4434 97.3135,75.4434 97.3135,65.4434" fill="none" style="stroke:#181818;stroke-width:1.5;"/></g><g class="participant participant-tail" data-participant="YFinance API"><text fill="#000000" font-family="sans-serif" font-size="14" font-weight="bold" lengthAdjust="spacing" textLength="92.627" x="30" y="1203.4043">YFinance API</text><path d="M61.3135,1216.3574 C61.3135,1206.3574 79.3135,1206.3574 79.3135,1206.3574 C79.3135,1206.3574 97.3135,1206.3574 97.3135,1216.3574 L97.3135,1242.3574 C97.3135,1252.3574 79.3135,1252.3574 79.3135,1252.3574 C79.3135,1252.3574 61.3135,1252.3574 61.3135,1242.3574 L61.3135,1216.3574" fill="#720E9E" style="stroke:#181818;stroke-width:1.5;"/><path d="M61.3135,1216.3574 C61.3135,1226.3574 79.3135,1226.3574 79.3135,1226.3574 C79.3135,1226.3574 97.3135,1226.3574 97.3135,1216.3574" fill="none" style="stroke:#181818;stroke-width:1.5;"/></g><g class="participant participant-head" data-participant="DataLoader"><rect fill="#FFFFFF" height="30.4883" rx="2.5" ry="2.5" style="stroke:#181818;stroke-width:0.5;" width="96.3936" x="167.1201" y="86.4434"/><text fill="#000000" font-family="sans-serif" font-size="14" font-weight="bold" lengthAdjust="spacing" textLength="82.3936" x="174.1201" y="106.9785">DataLoader</text></g><g class="participant participant-tail" data-participant="DataLoader"><rect fill="#FFFFFF" height="30.4883" rx="2.5" ry="2.5" style="stroke:#181818;stroke-width:0.5;" width="96.3936" x="167.1201" y="1189.8691"/><text fill="#000000" font-family="sans-serif" font-size="14" font-weight="bold" lengthAdjust="spacing" textLength="82.3936" x="174.1201" y="1210.4043">DataLoader</text></g><g class="participant participant-head" data-participant="Local data"><text fill="#000000" font-family="sans-serif" font-size="14" font-weight="bold" lengthAdjust="spacing" textLength="73.3428" x="307.7769" y="114.9785">Local data</text><path d="M329.4482,65.4434 C329.4482,55.4434 347.4482,55.4434 347.4482,55.4434 C347.4482,55.4434 365.4482,55.4434 365.4482,65.4434 L365.4482,91.4434 C365.4482,101.4434 347.4482,101.4434 347.4482,101.4434 C347.4482,101.4434 329.4482,101.4434 329.4482,91.4434 L329.4482,65.4434" fill="#4682B4" style="stroke:#181818;stroke-width:1.5;"/><path d="M329.4482,65.4434 C329.4482,75.4434 347.4482,75.4434 347.4482,75.4434 C347.4482,75.4434 365.4482,75.4434 365.4482,65.4434" fill="none" style="stroke:#181818;stroke-width:1.5;"/></g><g class="participant participant-tail" data-participant="Local data"><text fill="#000000" font-family="sans-serif" font-size="14" font-weight="bold" lengthAdjust="spacing" textLength="73.3428" x="307.7769" y="1203.4043">Local data</text><path d="M329.4482,1216.3574 C329.4482,1206.3574 347.4482,1206.3574 347.4482,1206.3574 C347.4482,1206.3574 365.4482,1206.3574 365.4482,1216.3574 L365.4482,1242.3574 C365.4482,1252.3574 347.4482,1252.3574 347.4482,1252.3574 C347.4482,1252.3574 329.4482,1252.3574 329.4482,1242.3574 L329.4482,1216.3574" fill="#4682B4" style="stroke:#181818;stroke-width:1.5;"/><path d="M329.4482,1216.3574 C329.4482,1226.3574 347.4482,1226.3574 347.4482,1226.3574 C347.4482,1226.3574 365.4482,1226.3574 365.4482,1216.3574" fill="none" style="stroke:#181818;stroke-width:1.5;"/></g><g class="participant participant-head" data-participant="DataProcessor"><rect fill="#FFFFFF" height="30.4883" rx="2.5" ry="2.5" style="stroke:#181818;stroke-width:0.5;" width="117.9199" x="430.6553" y="86.4434"/><text fill="#000000" font-family="sans-serif" font-size="14" font-weight="bold" lengthAdjust="spacing" textLength="103.9199" x="437.6553" y="106.9785">DataProcessor</text></g><g class="participant participant-tail" data-participant="DataProcessor"><rect fill="#FFFFFF" height="30.4883" rx="2.5" ry="2.5" style="stroke:#181818;stroke-width:0.5;" width="117.9199" x="430.6553" y="1189.8691"/><text fill="#000000" font-family="sans-serif" font-size="14" font-weight="bold" lengthAdjust="spacing" textLength="103.9199" x="437.6553" y="1210.4043">DataProcessor</text></g><g class="participant participant-head" data-participant="HeatmapBuilder"><rect fill="#FFFFFF" height="30.4883" rx="2.5" ry="2.5" style="stroke:#181818;stroke-width:0.5;" width="129.0762" x="561.1357" y="86.4434"/><text fill="#000000" font-family="sans-serif" font-size="14" font-weight="bold" lengthAdjust="spacing" textLength="115.0762" x="568.1357" y="106.9785">HeatmapBuilder</text></g><g class="participant participant-tail" data-participant="HeatmapBuilder"><rect fill="#FFFFFF" height="30.4883" rx="2.5" ry="2.5" style="stroke:#181818;stroke-width:0.5;" width="129.0762" x="561.1357" y="1189.8691"/><text fill="#000000" font-family="sans-serif" font-size="14" font-weight="bold" lengthAdjust="spacing" textLength="115.0762" x="568.1357" y="1210.4043">HeatmapBuilder</text></g><g class="participant participant-head" data-participant="Images"><text fill="#000000" font-family="sans-serif" font-size="14" font-weight="bold" lengthAdjust="spacing" textLength="51.8027" x="809.8027" y="114.9785">Images</text><path d="M820.7041,65.4434 C820.7041,55.4434 838.7041,55.4434 838.7041,55.4434 C838.7041,55.4434 856.7041,55.4434 856.7041,65.4434 L856.7041,91.4434 C856.7041,101.4434 838.7041,101.4434 838.7041,101.4434 C838.7041,101.4434 820.7041,101.4434 820.7041,91.4434 L820.7041,65.4434" fill="#B22222" style="stroke:#181818;stroke-width:1.5;"/><path d="M820.7041,65.4434 C820.7041,75.4434 838.7041,75.4434 838.7041,75.4434 C838.7041,75.4434 856.7041,75.4434 856.7041,65.4434" fill="none" style="stroke:#181818;stroke-width:1.5;"/></g><g class="participant participant-tail" data-participant="Images"><text fill="#000000" font-family="sans-serif" font-size="14" font-weight="bold" lengthAdjust="spacing" textLength="51.8027" x="809.8027" y="1203.4043">Images</text><path d="M820.7041,1216.3574 C820.7041,1206.3574 838.7041,1206.3574 838.7041,1206.3574 C838.7041,1206.3574 856.7041,1206.3574 856.7041,1216.3574 L856.7041,1242.3574 C856.7041,1252.3574 838.7041,1252.3574 838.7041,1252.3574 C838.7041,1252.3574 820.7041,1252.3574 820.7041,1242.3574 L820.7041,1216.3574" fill="#B22222" style="stroke:#181818;stroke-width:1.5;"/><path d="M820.7041,1216.3574 C820.7041,1226.3574 838.7041,1226.3574 838.7041,1226.3574 C838.7041,1226.3574 856.7041,1226.3574 856.7041,1216.3574" fill="none" style="stroke:#181818;stroke-width:1.5;"/></g><g class="participant participant-head" data-participant="ThermalVision"><rect fill="#FFFFFF" height="30.4883" rx="2.5" ry="2.5" style="stroke:#181818;stroke-width:0.5;" width="118.7197" x="926.8496" y="86.4434"/><text fill="#000000" font-family="sans-serif" font-size="14" font-weight="bold" lengthAdjust="spacing" textLength="104.7197" x="933.8496" y="106.9785">ThermalVision</text></g><g class="participant participant-tail" data-participant="ThermalVision"><rect fill="#FFFFFF" height="30.4883" rx="2.5" ry="2.5" style="stroke:#181818;stroke-width:0.5;" width="118.7197" x="926.8496" y="1189.8691"/><text fill="#000000" font-family="sans-serif" font-size="14" font-weight="bold" lengthAdjust="spacing" textLength="104.7197" x="933.8496" y="1210.4043">ThermalVision</text></g><g class="participant participant-head" data-participant="Model"><text fill="#000000" font-family="sans-serif" font-size="14" font-weight="bold" lengthAdjust="spacing" textLength="43.6816" x="1165.0933" y="114.9785">Model</text><path d="M1171.9341,65.4434 C1171.9341,55.4434 1189.9341,55.4434 1189.9341,55.4434 C1189.9341,55.4434 1207.9341,55.4434 1207.9341,65.4434 L1207.9341,91.4434 C1207.9341,101.4434 1189.9341,101.4434 1189.9341,101.4434 C1189.9341,101.4434 1171.9341,101.4434 1171.9341,91.4434 L1171.9341,65.4434" fill="#DAA520" style="stroke:#181818;stroke-width:1.5;"/><path d="M1171.9341,65.4434 C1171.9341,75.4434 1189.9341,75.4434 1189.9341,75.4434 C1189.9341,75.4434 1207.9341,75.4434 1207.9341,65.4434" fill="none" style="stroke:#181818;stroke-width:1.5;"/></g><g class="participant participant-tail" data-participant="Model"><text fill="#000000" font-family="sans-serif" font-size="14" font-weight="bold" lengthAdjust="spacing" textLength="43.6816" x="1165.0933" y="1203.4043">Model</text><path d="M1171.9341,1216.3574 C1171.9341,1206.3574 1189.9341,1206.3574 1189.9341,1206.3574 C1189.9341,1206.3574 1207.9341,1206.3574 1207.9341,1216.3574 L1207.9341,1242.3574 C1207.9341,1252.3574 1189.9341,1252.3574 1189.9341,1252.3574 C1189.9341,1252.3574 1171.9341,1252.3574 1171.9341,1242.3574 L1171.9341,1216.3574" fill="#DAA520" style="stroke:#181818;stroke-width:1.5;"/><path d="M1171.9341,1216.3574 C1171.9341,1226.3574 1189.9341,1226.3574 1189.9341,1226.3574 C1189.9341,1226.3574 1207.9341,1226.3574 1207.9341,1216.3574" fill="none" style="stroke:#181818;stroke-width:1.5;"/></g><g class="participant participant-head" data-participant="BackTest"><rect fill="#FFFFFF" height="30.4883" rx="2.5" ry="2.5" style="stroke:#181818;stroke-width:0.5;" width="78.8115" x="1274.376" y="86.4434"/><text fill="#000000" font-family="sans-serif" font-size="14" font-weight="bold" lengthAdjust="spacing" textLength="64.8115" x="1281.376" y="106.9785">BackTest</text></g><g class="participant participant-tail" data-participant="BackTest"><rect fill="#FFFFFF" height="30.4883" rx="2.5" ry="2.5" style="stroke:#181818;stroke-width:0.5;" width="78.8115" x="1274.376" y="1189.8691"/><text fill="#000000" font-family="sans-serif" font-size="14" font-weight="bold" lengthAdjust="spacing" textLength="64.8115" x="1281.376" y="1210.4043">BackTest</text></g><g><title>DataLoader</title><rect fill="#778899" height="63.6211" style="stroke:#181818;stroke-width:1;" width="10" x="210.3169" y="205.8633"/></g><g><title>DataProcessor</title><rect fill="#778899" height="194.1738" style="stroke:#181818;stroke-width:1;" width="10" x="484.6152" y="338.1055"/></g><g><title>HeatmapBuilder</title><rect fill="#778899" height="177.5527" style="stroke:#181818;stroke-width:1;" width="10" x="620.6738" y="600.9004"/></g><g><title>ThermalVision</title><rect fill="#778899" height="105.9316" style="stroke:#181818;stroke-width:1;" width="10" x="981.2095" y="878.3848"/></g><g><title>BackTest</title><rect fill="#778899" height="105.9316" style="stroke:#181818;stroke-width:1;" width="10" x="1308.7817" y="1052.9375"/></g><path d="M10,134.9316 L143.188,134.9316 L143.188,142.2422 L133.188,152.2422 L10,152.2422 L10,134.9316" fill="#EEEEEE" style="stroke:#000000;stroke-width:1.5;"/><rect fill="none" height="658.5215" style="stroke:#000000;stroke-width:1.5;" width="877.6055" x="10" y="134.9316"/><text fill="#000000" font-family="sans-serif" font-size="13" font-weight="bold" lengthAdjust="spacing" textLength="88.188" x="25" y="148.5">Data Pipeline</text><path d="M20,159.2422 L141.5083,159.2422 L141.5083,166.5527 L131.5083,176.5527 L20,176.5527 L20,159.2422" fill="#EEEEEE" style="stroke:#000000;stroke-width:1.5;"/><rect fill="none" height="118.2422" style="stroke:#000000;stroke-width:1.5;" width="377.1196" x="20" y="159.2422"/><text fill="#000000" font-family="sans-serif" font-size="13" font-weight="bold" lengthAdjust="spacing" textLength="76.5083" x="35" y="172.8105">DataLoader</text><g class="message" data-participant-1="DataLoader" data-participant-2="DataLoader"><line style="stroke:#181818;stroke-width:1;" x1="215.3169" x2="262.3169" y1="192.8633" y2="192.8633"/><line style="stroke:#181818;stroke-width:1;" x1="262.3169" x2="262.3169" y1="192.8633" y2="205.8633"/><line style="stroke:#181818;stroke-width:1;" x1="221.3169" x2="262.3169" y1="205.8633" y2="205.8633"/><polygon fill="#181818" points="231.3169,201.8633,221.3169,205.8633,231.3169,209.8633,227.3169,205.8633" style="stroke:#181818;stroke-width:1;"/><text fill="#0000FF" font-family="sans-serif" font-size="13" font-weight="bold" lengthAdjust="spacing" textLength="8.5757" x="227.3169" y="188.1211">1</text><text fill="#000000" font-family="sans-serif" font-size="13" lengthAdjust="spacing" textLength="52.7554" x="239.8926" y="188.1211">Initialise</text></g><g class="message" data-participant-1="DataLoader" data-participant-2="YFinance API"><polygon fill="#181818" points="90.3135,236.1738,80.3135,240.1738,90.3135,244.1738,86.3135,240.1738" style="stroke:#181818;stroke-width:1;"/><polygon fill="#181818" points="198.3169,236.1738,208.3169,240.1738,198.3169,244.1738,202.3169,240.1738" style="stroke:#181818;stroke-width:1;"/><line style="stroke:#181818;stroke-width:1;" x1="84.3135" x2="204.3169" y1="240.1738" y2="240.1738"/><text fill="#0000FF" font-family="sans-serif" font-size="13" font-weight="bold" lengthAdjust="spacing" textLength="8.5757" x="96.3135" y="235.4316">2</text><text fill="#000000" font-family="sans-serif" font-size="13" lengthAdjust="spacing" textLength="94.4277" x="108.8892" y="235.4316">Download data</text></g><g class="message" data-participant-1="DataLoader" data-participant-2="Local data"><polygon fill="#181818" points="335.4482,265.4844,345.4482,269.4844,335.4482,273.4844,339.4482,269.4844" style="stroke:#181818;stroke-width:1;"/><line style="stroke:#181818;stroke-width:1;" x1="215.3169" x2="341.4482" y1="269.4844" y2="269.4844"/><text fill="#0000FF" font-family="sans-serif" font-size="13" font-weight="bold" lengthAdjust="spacing" textLength="8.5757" x="222.3169" y="264.7422">3</text><text fill="#000000" font-family="sans-serif" font-size="13" lengthAdjust="spacing" textLength="90.5557" x="234.8926" y="264.7422">Store raw data</text></g><path d="M297.7769,291.4844 L439.2739,291.4844 L439.2739,298.7949 L429.2739,308.7949 L297.7769,308.7949 L297.7769,291.4844" fill="#EEEEEE" style="stroke:#000000;stroke-width:1.5;"/><rect fill="none" height="248.7949" style="stroke:#000000;stroke-width:1.5;" width="327.897" x="297.7769" y="291.4844"/><text fill="#000000" font-family="sans-serif" font-size="13" font-weight="bold" lengthAdjust="spacing" textLength="96.4971" x="312.7769" y="305.0527">DataProcessor</text><g class="message" data-participant-1="DataProcessor" data-participant-2="DataProcessor"><line style="stroke:#181818;stroke-width:1;" x1="489.6152" x2="536.6152" y1="325.1055" y2="325.1055"/><line style="stroke:#181818;stroke-width:1;" x1="536.6152" x2="536.6152" y1="325.1055" y2="338.1055"/><line style="stroke:#181818;stroke-width:1;" x1="495.6152" x2="536.6152" y1="338.1055" y2="338.1055"/><polygon fill="#181818" points="505.6152,334.1055,495.6152,338.1055,505.6152,342.1055,501.6152,338.1055" style="stroke:#181818;stroke-width:1;"/><text fill="#0000FF" font-family="sans-serif" font-size="13" font-weight="bold" lengthAdjust="spacing" textLength="8.5757" x="501.6152" y="320.3633">4</text><text fill="#000000" font-family="sans-serif" font-size="13" lengthAdjust="spacing" textLength="52.7554" x="514.1909" y="320.3633">Initialise</text></g><g class="message" data-participant-1="DataProcessor" data-participant-2="Local data"><polygon fill="#181818" points="358.4482,368.416,348.4482,372.416,358.4482,376.416,354.4482,372.416" style="stroke:#181818;stroke-width:1;"/><polygon fill="#181818" points="472.6152,368.416,482.6152,372.416,472.6152,376.416,476.6152,372.416" style="stroke:#181818;stroke-width:1;"/><line style="stroke:#181818;stroke-width:1;" x1="352.4482" x2="478.6152" y1="372.416" y2="372.416"/><text fill="#0000FF" font-family="sans-serif" font-size="13" font-weight="bold" lengthAdjust="spacing" textLength="8.5757" x="364.4482" y="367.6738">5</text><text fill="#000000" font-family="sans-serif" font-size="13" lengthAdjust="spacing" textLength="61.7944" x="377.0239" y="367.6738">Load data</text></g><g class="message" data-participant-1="DataProcessor" data-participant-2="DataProcessor"><line style="stroke:#181818;stroke-width:1;" x1="494.6152" x2="536.6152" y1="417.0371" y2="417.0371"/><line style="stroke:#181818;stroke-width:1;" x1="536.6152" x2="536.6152" y1="417.0371" y2="430.0371"/><line style="stroke:#181818;stroke-width:1;" x1="495.6152" x2="536.6152" y1="430.0371" y2="430.0371"/><polygon fill="#181818" points="505.6152,426.0371,495.6152,430.0371,505.6152,434.0371,501.6152,430.0371" style="stroke:#181818;stroke-width:1;"/><text fill="#0000FF" font-family="sans-serif" font-size="13" font-weight="bold" lengthAdjust="spacing" textLength="8.5757" x="501.6152" y="404.6396">6</text><text fill="#000000" font-family="sans-serif" font-size="13" lengthAdjust="spacing" textLength="61.1025" x="514.1909" y="396.9844">Build USD</text><text fill="#000000" font-family="sans-serif" font-size="13" lengthAdjust="spacing" textLength="50.4321" x="514.1909" y="412.2949">regimes</text></g><g class="message" data-participant-1="DataProcessor" data-participant-2="DataProcessor"><line style="stroke:#181818;stroke-width:1;" x1="494.6152" x2="536.6152" y1="474.6582" y2="474.6582"/><line style="stroke:#181818;stroke-width:1;" x1="536.6152" x2="536.6152" y1="474.6582" y2="487.6582"/><line style="stroke:#181818;stroke-width:1;" x1="495.6152" x2="536.6152" y1="487.6582" y2="487.6582"/><polygon fill="#181818" points="505.6152,483.6582,495.6152,487.6582,505.6152,491.6582,501.6152,487.6582" style="stroke:#181818;stroke-width:1;"/><text fill="#0000FF" font-family="sans-serif" font-size="13" font-weight="bold" lengthAdjust="spacing" textLength="8.5757" x="501.6152" y="462.2607">7</text><text fill="#000000" font-family="sans-serif" font-size="13" lengthAdjust="spacing" textLength="89.4829" x="514.1909" y="454.6055">Build currency</text><text fill="#000000" font-family="sans-serif" font-size="13" lengthAdjust="spacing" textLength="51.3208" x="514.1909" y="469.916">features</text></g><g class="message" data-participant-1="DataProcessor" data-participant-2="Local data"><polygon fill="#181818" points="358.4482,528.2793,348.4482,532.2793,358.4482,536.2793,354.4482,532.2793" style="stroke:#181818;stroke-width:1;"/><line style="stroke:#181818;stroke-width:1;" x1="352.4482" x2="488.6152" y1="532.2793" y2="532.2793"/><text fill="#0000FF" font-family="sans-serif" font-size="13" font-weight="bold" lengthAdjust="spacing" textLength="8.5757" x="364.4482" y="519.8818">8</text><text fill="#000000" font-family="sans-serif" font-size="13" lengthAdjust="spacing" textLength="100.5913" x="377.0239" y="512.2266">Store processed</text><text fill="#000000" font-family="sans-serif" font-size="13" lengthAdjust="spacing" textLength="27.4028" x="377.0239" y="527.5371">data</text></g><path d="M297.7769,554.2793 L449.6333,554.2793 L449.6333,561.5898 L439.6333,571.5898 L297.7769,571.5898 L297.7769,554.2793" fill="#EEEEEE" style="stroke:#000000;stroke-width:1.5;"/><rect fill="none" height="232.1738" style="stroke:#000000;stroke-width:1.5;" width="579.8286" x="297.7769" y="554.2793"/><text fill="#000000" font-family="sans-serif" font-size="13" font-weight="bold" lengthAdjust="spacing" textLength="106.8564" x="312.7769" y="567.8477">HeatmapBuilder</text><g class="message" data-participant-1="HeatmapBuilder" data-participant-2="HeatmapBuilder"><line style="stroke:#181818;stroke-width:1;" x1="625.6738" x2="672.6738" y1="587.9004" y2="587.9004"/><line style="stroke:#181818;stroke-width:1;" x1="672.6738" x2="672.6738" y1="587.9004" y2="600.9004"/><line style="stroke:#181818;stroke-width:1;" x1="631.6738" x2="672.6738" y1="600.9004" y2="600.9004"/><polygon fill="#181818" points="641.6738,596.9004,631.6738,600.9004,641.6738,604.9004,637.6738,600.9004" style="stroke:#181818;stroke-width:1;"/><text fill="#0000FF" font-family="sans-serif" font-size="13" font-weight="bold" lengthAdjust="spacing" textLength="8.5757" x="637.6738" y="583.1582">9</text><text fill="#000000" font-family="sans-serif" font-size="13" lengthAdjust="spacing" textLength="52.7554" x="650.2495" y="583.1582">Initialise</text></g><g class="message" data-participant-1="HeatmapBuilder" data-participant-2="Local data"><polygon fill="#181818" points="358.4482,631.2109,348.4482,635.2109,358.4482,639.2109,354.4482,635.2109" style="stroke:#181818;stroke-width:1;"/><polygon fill="#181818" points="608.6738,631.2109,618.6738,635.2109,608.6738,639.2109,612.6738,635.2109" style="stroke:#181818;stroke-width:1;"/><line style="stroke:#181818;stroke-width:1;" x1="352.4482" x2="614.6738" y1="635.2109" y2="635.2109"/><text fill="#0000FF" font-family="sans-serif" font-size="13" font-weight="bold" lengthAdjust="spacing" textLength="17.1514" x="364.4482" y="630.4688">10</text><text fill="#000000" font-family="sans-serif" font-size="13" lengthAdjust="spacing" textLength="129.9746" x="385.5996" y="630.4688">Load processed data</text></g><g class="message" data-participant-1="HeatmapBuilder" data-participant-2="HeatmapBuilder"><line style="stroke:#181818;stroke-width:1;" x1="630.6738" x2="672.6738" y1="664.5215" y2="664.5215"/><line style="stroke:#181818;stroke-width:1;" x1="672.6738" x2="672.6738" y1="664.5215" y2="677.5215"/><line style="stroke:#181818;stroke-width:1;" x1="631.6738" x2="672.6738" y1="677.5215" y2="677.5215"/><polygon fill="#181818" points="641.6738,673.5215,631.6738,677.5215,641.6738,681.5215,637.6738,677.5215" style="stroke:#181818;stroke-width:1;"/><text fill="#0000FF" font-family="sans-serif" font-size="13" font-weight="bold" lengthAdjust="spacing" textLength="17.1514" x="637.6738" y="659.7793">11</text><text fill="#000000" font-family="sans-serif" font-size="13" lengthAdjust="spacing" textLength="157.8789" x="658.8252" y="659.7793">Building feature matrices</text></g><g class="message" data-participant-1="HeatmapBuilder" data-participant-2="Local data"><polygon fill="#181818" points="358.4482,702.832,348.4482,706.832,358.4482,710.832,354.4482,706.832" style="stroke:#181818;stroke-width:1;"/><line style="stroke:#181818;stroke-width:1;" x1="352.4482" x2="619.6738" y1="706.832" y2="706.832"/><text fill="#0000FF" font-family="sans-serif" font-size="13" font-weight="bold" lengthAdjust="spacing" textLength="17.1514" x="364.4482" y="702.0898">12</text><text fill="#000000" font-family="sans-serif" font-size="13" lengthAdjust="spacing" textLength="90.3081" x="385.5996" y="702.0898">Store matrices</text></g><g class="message" data-participant-1="HeatmapBuilder" data-participant-2="HeatmapBuilder"><line style="stroke:#181818;stroke-width:1;" x1="630.6738" x2="672.6738" y1="736.1426" y2="736.1426"/><line style="stroke:#181818;stroke-width:1;" x1="672.6738" x2="672.6738" y1="736.1426" y2="749.1426"/><line style="stroke:#181818;stroke-width:1;" x1="631.6738" x2="672.6738" y1="749.1426" y2="749.1426"/><polygon fill="#181818" points="641.6738,745.1426,631.6738,749.1426,641.6738,753.1426,637.6738,749.1426" style="stroke:#181818;stroke-width:1;"/><text fill="#0000FF" font-family="sans-serif" font-size="13" font-weight="bold" lengthAdjust="spacing" textLength="17.1514" x="637.6738" y="731.4004">13</text><text fill="#000000" font-family="sans-serif" font-size="13" lengthAdjust="spacing" textLength="96.8335" x="658.8252" y="731.4004">Build heatmaps</text></g><g class="message" data-participant-1="HeatmapBuilder" data-participant-2="Images"><polygon fill="#181818" points="826.7041,774.4531,836.7041,778.4531,826.7041,782.4531,830.7041,778.4531" style="stroke:#181818;stroke-width:1;"/><line style="stroke:#181818;stroke-width:1;" x1="625.6738" x2="832.7041" y1="778.4531" y2="778.4531"/><text fill="#0000FF" font-family="sans-serif" font-size="13" font-weight="bold" lengthAdjust="spacing" textLength="17.1514" x="632.6738" y="773.7109">14</text><text fill="#000000" font-family="sans-serif" font-size="13" lengthAdjust="spacing" textLength="98.0015" x="653.8252" y="773.7109">Store heatmaps</text></g><path d="M789.8027,807.4531 L947.4165,807.4531 L947.4165,814.7637 L937.4165,824.7637 L789.8027,824.7637 L789.8027,807.4531" fill="#EEEEEE" style="stroke:#000000;stroke-width:1.5;"/><rect fill="none" height="366.416" style="stroke:#000000;stroke-width:1.5;" width="696.7422" x="789.8027" y="807.4531"/><text fill="#000000" font-family="sans-serif" font-size="13" font-weight="bold" lengthAdjust="spacing" textLength="112.6138" x="804.8027" y="821.0215">Strategy Pipeline</text><path d="M799.8027,831.7637 L942.0425,831.7637 L942.0425,839.0742 L932.0425,849.0742 L799.8027,849.0742 L799.8027,831.7637" fill="#EEEEEE" style="stroke:#000000;stroke-width:1.5;"/><rect fill="none" height="160.5527" style="stroke:#000000;stroke-width:1.5;" width="424.9722" x="799.8027" y="831.7637"/><text fill="#000000" font-family="sans-serif" font-size="13" font-weight="bold" lengthAdjust="spacing" textLength="97.2397" x="814.8027" y="845.332">ThermalVision</text><g class="message" data-participant-1="ThermalVision" data-participant-2="ThermalVision"><line style="stroke:#181818;stroke-width:1;" x1="986.2095" x2="1033.2095" y1="865.3848" y2="865.3848"/><line style="stroke:#181818;stroke-width:1;" x1="1033.2095" x2="1033.2095" y1="865.3848" y2="878.3848"/><line style="stroke:#181818;stroke-width:1;" x1="992.2095" x2="1033.2095" y1="878.3848" y2="878.3848"/><polygon fill="#181818" points="1002.2095,874.3848,992.2095,878.3848,1002.2095,882.3848,998.2095,878.3848" style="stroke:#181818;stroke-width:1;"/><text fill="#0000FF" font-family="sans-serif" font-size="13" font-weight="bold" lengthAdjust="spacing" textLength="17.1514" x="998.2095" y="860.6426">15</text><text fill="#000000" font-family="sans-serif" font-size="13" lengthAdjust="spacing" textLength="52.7554" x="1019.3608" y="860.6426">Initialise</text></g><g class="message" data-participant-1="ThermalVision" data-participant-2="Images"><polygon fill="#181818" points="849.7041,908.6953,839.7041,912.6953,849.7041,916.6953,845.7041,912.6953" style="stroke:#181818;stroke-width:1;"/><polygon fill="#181818" points="969.2095,908.6953,979.2095,912.6953,969.2095,916.6953,973.2095,912.6953" style="stroke:#181818;stroke-width:1;"/><line style="stroke:#181818;stroke-width:1;" x1="843.7041" x2="975.2095" y1="912.6953" y2="912.6953"/><text fill="#0000FF" font-family="sans-serif" font-size="13" font-weight="bold" lengthAdjust="spacing" textLength="17.1514" x="855.7041" y="907.9531">16</text><text fill="#000000" font-family="sans-serif" font-size="13" lengthAdjust="spacing" textLength="97.354" x="876.8555" y="907.9531">Load Heatmaps</text></g><g class="message" data-participant-1="ThermalVision" data-participant-2="ThermalVision"><line style="stroke:#181818;stroke-width:1;" x1="991.2095" x2="1033.2095" y1="942.0059" y2="942.0059"/><line style="stroke:#181818;stroke-width:1;" x1="1033.2095" x2="1033.2095" y1="942.0059" y2="955.0059"/><line style="stroke:#181818;stroke-width:1;" x1="992.2095" x2="1033.2095" y1="955.0059" y2="955.0059"/><polygon fill="#181818" points="1002.2095,951.0059,992.2095,955.0059,1002.2095,959.0059,998.2095,955.0059" style="stroke:#181818;stroke-width:1;"/><text fill="#0000FF" font-family="sans-serif" font-size="13" font-weight="bold" lengthAdjust="spacing" textLength="17.1514" x="998.2095" y="937.2637">17</text><text fill="#000000" font-family="sans-serif" font-size="13" lengthAdjust="spacing" textLength="148.5732" x="1019.3608" y="937.2637">Compile and Train CNN</text></g><g class="message" data-participant-1="ThermalVision" data-participant-2="Model"><polygon fill="#181818" points="1177.9341,980.3164,1187.9341,984.3164,1177.9341,988.3164,1181.9341,984.3164" style="stroke:#181818;stroke-width:1;"/><line style="stroke:#181818;stroke-width:1;" x1="986.2095" x2="1183.9341" y1="984.3164" y2="984.3164"/><text fill="#0000FF" font-family="sans-serif" font-size="13" font-weight="bold" lengthAdjust="spacing" textLength="17.1514" x="993.2095" y="979.5742">18</text><text fill="#000000" font-family="sans-serif" font-size="13" lengthAdjust="spacing" textLength="60.4678" x="1014.3608" y="979.5742">Save CNN</text></g><path d="M799.8027,1006.3164 L904.9849,1006.3164 L904.9849,1013.627 L894.9849,1023.627 L799.8027,1023.627 L799.8027,1006.3164" fill="#EEEEEE" style="stroke:#000000;stroke-width:1.5;"/><rect fill="none" height="160.5527" style="stroke:#000000;stroke-width:1.5;" width="676.7422" x="799.8027" y="1006.3164"/><text fill="#000000" font-family="sans-serif" font-size="13" font-weight="bold" lengthAdjust="spacing" textLength="60.1821" x="814.8027" y="1019.8848">BackTest</text><g class="message" data-participant-1="BackTest" data-participant-2="BackTest"><line style="stroke:#181818;stroke-width:1;" x1="1313.7817" x2="1360.7817" y1="1039.9375" y2="1039.9375"/><line style="stroke:#181818;stroke-width:1;" x1="1360.7817" x2="1360.7817" y1="1039.9375" y2="1052.9375"/><line style="stroke:#181818;stroke-width:1;" x1="1319.7817" x2="1360.7817" y1="1052.9375" y2="1052.9375"/><polygon fill="#181818" points="1329.7817,1048.9375,1319.7817,1052.9375,1329.7817,1056.9375,1325.7817,1052.9375" style="stroke:#181818;stroke-width:1;"/><text fill="#0000FF" font-family="sans-serif" font-size="13" font-weight="bold" lengthAdjust="spacing" textLength="17.1514" x="1325.7817" y="1035.1953">19</text><text fill="#000000" font-family="sans-serif" font-size="13" lengthAdjust="spacing" textLength="52.7554" x="1346.9331" y="1035.1953">Initialise</text></g><g class="message" data-participant-1="BackTest" data-participant-2="Model"><polygon fill="#181818" points="1200.9341,1083.248,1190.9341,1087.248,1200.9341,1091.248,1196.9341,1087.248" style="stroke:#181818;stroke-width:1;"/><polygon fill="#181818" points="1296.7817,1083.248,1306.7817,1087.248,1296.7817,1091.248,1300.7817,1087.248" style="stroke:#181818;stroke-width:1;"/><line style="stroke:#181818;stroke-width:1;" x1="1194.9341" x2="1302.7817" y1="1087.248" y2="1087.248"/><text fill="#0000FF" font-family="sans-serif" font-size="13" font-weight="bold" lengthAdjust="spacing" textLength="17.1514" x="1206.9341" y="1082.5059">20</text><text fill="#000000" font-family="sans-serif" font-size="13" lengthAdjust="spacing" textLength="73.6963" x="1228.0854" y="1082.5059">Load model</text></g><g class="message" data-participant-1="BackTest" data-participant-2="BackTest"><line style="stroke:#181818;stroke-width:1;" x1="1318.7817" x2="1360.7817" y1="1116.5586" y2="1116.5586"/><line style="stroke:#181818;stroke-width:1;" x1="1360.7817" x2="1360.7817" y1="1116.5586" y2="1129.5586"/><line style="stroke:#181818;stroke-width:1;" x1="1319.7817" x2="1360.7817" y1="1129.5586" y2="1129.5586"/><polygon fill="#181818" points="1329.7817,1125.5586,1319.7817,1129.5586,1329.7817,1133.5586,1325.7817,1129.5586" style="stroke:#181818;stroke-width:1;"/><text fill="#0000FF" font-family="sans-serif" font-size="13" font-weight="bold" lengthAdjust="spacing" textLength="17.1514" x="1325.7817" y="1111.8164">21</text><text fill="#000000" font-family="sans-serif" font-size="13" lengthAdjust="spacing" textLength="107.6118" x="1346.9331" y="1111.8164">Backtest strategy</text></g><g class="message" data-participant-1="BackTest" data-participant-2="Images"><polygon fill="#181818" points="849.7041,1154.8691,839.7041,1158.8691,849.7041,1162.8691,845.7041,1158.8691" style="stroke:#181818;stroke-width:1;"/><line style="stroke:#181818;stroke-width:1;" x1="843.7041" x2="1312.7817" y1="1158.8691" y2="1158.8691"/><text fill="#0000FF" font-family="sans-serif" font-size="13" font-weight="bold" lengthAdjust="spacing" textLength="17.1514" x="855.7041" y="1154.127">22</text><text fill="#000000" font-family="sans-serif" font-size="13" lengthAdjust="spacing" textLength="74.769" x="876.8555" y="1154.127">Save results</text></g><!--SRC=[bLR9Rjim4BthAmRs8QVKHO2YgE46g9Cu2U06HkrkG2vZQI8JeKYLeXAuNv-HP2sqjRGwoUHxixmt8dssipPEffD9B57PD9BlV1rD4lgJalBfF10O6emyBtaMAaP-XHKQAtmHCtoXbLtRlIJOQXaqCDTeSOi9TGAkj9JaMw5LqecPe_yS6fsgWD7QmC-TiDJOtmWhYmpYBy75XzQjEZ2cLgiqsfA1qUo9zy3FmdxUofGkPzlBaUVPZ0QBNt17Q2ECOMqDMWhtdXSSEeBHxuLGoDh0bzNz2COVBzxVVBhnubgLlFkbne0pZOkYQ_PI-oWX-ytSjIMISyv_GbyPxLEIw2f24t2eRfuAsPRZFiAG4XWlXA6v4VwpGzxio4GeVuY4nJ_XVjK1IHZVic2alkd0eMQ6R2Yn9SlBt8dpUc4bOf92aNVMwBuS8m_uAS3ZfGXtDkkv8LE-dpqDxlbbuzSKxfMm0gL8g08ZpyyBs-FedOTVIrw-DRHl2ppZoAw9KxZMhqhoTcvCHpLDwwOy6TeG67nrAG6LLULBf0AlKAGsT5YK2kjKKaSuI5Cj3AlJ6ASUWMhKxAJVPQiwVJNbumdVrzUFob0e8ah-a-gdnh1G-qVrn0EVchu0RUR41O22HpNiqT4trM-I2wu27yNWijoLVf-El-eEeuvW7KvLlRkU3LUOlmWLma5pYD3o6TBG_ZH6c_Z_G6jD3RjYjOzO771bfXD2Yx-vnuMDvP7UEB7S8x7VUWTRfNGZS8dEGh_lHmToX-qkQjPG8VVxxbY4eOgkT1GBlknG1R0nA1HSFJnqi_DxWHN75tA0hTzITa_Ox9xebxAyJgfWrVt22SltVktg6wb3jWemgvl81Okozu7CTH_btu0sV3MDcJPyIANI3ixY6m00]--></g></svg>